<svg width="41" height="33" viewBox="0 0 41 33" fill="none" xmlns="http://www.w3.org/2000/svg">
<path d="M17.201 5.1444L20.5001 3L40.5 16L20.5001 29L0.5 16L14.106 7.15613" stroke="black" stroke-miterlimit="10" stroke-linecap="round" stroke-linejoin="round"/>
<path d="M20.4999 23.3247C20.7387 23.3247 20.9323 23.0252 20.9323 22.6558C20.9323 22.2863 20.7387 21.9868 20.4999 21.9868C20.2611 21.9868 20.0675 22.2863 20.0675 22.6558C20.0675 23.0252 20.2611 23.3247 20.4999 23.3247Z" fill="black"/>
<path d="M20.4999 19.7823C20.7387 19.7823 20.9323 19.4828 20.9323 19.1133C20.9323 18.7439 20.7387 18.4444 20.4999 18.4444C20.2611 18.4444 20.0675 18.7439 20.0675 19.1133C20.0675 19.4828 20.2611 19.7823 20.4999 19.7823Z" fill="black"/>
<path d="M20.4999 16.2399C20.7387 16.2399 20.9323 15.9404 20.9323 15.571C20.9323 15.2015 20.7387 14.9021 20.4999 14.9021C20.2611 14.9021 20.0675 15.2015 20.0675 15.571C20.0675 15.9404 20.2611 16.2399 20.4999 16.2399Z" fill="black"/>
<path d="M15.3303 19.7823C15.5691 19.7823 15.7627 19.4828 15.7627 19.1133C15.7627 18.7439 15.5691 18.4444 15.3303 18.4444C15.0915 18.4444 14.8979 18.7439 14.8979 19.1133C14.8979 19.4828 15.0915 19.7823 15.3303 19.7823Z" fill="black"/>
<path d="M15.3303 16.2399C15.5691 16.2399 15.7627 15.9404 15.7627 15.571C15.7627 15.2015 15.5691 14.9021 15.3303 14.9021C15.0915 14.9021 14.8979 15.2015 14.8979 15.571C14.8979 15.9404 15.0915 16.2399 15.3303 16.2399Z" fill="black"/>
<path d="M17.9151 21.272C18.1539 21.272 18.3475 20.9725 18.3475 20.6031C18.3475 20.2336 18.1539 19.9342 17.9151 19.9342C17.6762 19.9342 17.4826 20.2336 17.4826 20.6031C17.4826 20.9725 17.6762 21.272 17.9151 21.272Z" fill="black"/>
<path d="M17.9151 17.7297C18.1539 17.7297 18.3475 17.4302 18.3475 17.0607C18.3475 16.6913 18.1539 16.3918 17.9151 16.3918C17.6762 16.3918 17.4826 16.6913 17.4826 17.0607C17.4826 17.4302 17.6762 17.7297 17.9151 17.7297Z" fill="black"/>
<path d="M17.9151 14.1872C18.1539 14.1872 18.3475 13.8877 18.3475 13.5183C18.3475 13.1489 18.1539 12.8494 17.9151 12.8494C17.6762 12.8494 17.4826 13.1489 17.4826 13.5183C17.4826 13.8877 17.6762 14.1872 17.9151 14.1872Z" fill="black"/>
<path d="M10.1606 16.2399C10.3995 16.2399 10.5931 15.9404 10.5931 15.571C10.5931 15.2015 10.3995 14.9021 10.1606 14.9021C9.92182 14.9021 9.72821 15.2015 9.72821 15.571C9.72821 15.9404 9.92182 16.2399 10.1606 16.2399Z" fill="black"/>
<path d="M12.7455 17.7297C12.9843 17.7297 13.1779 17.4302 13.1779 17.0607C13.1779 16.6913 12.9843 16.3918 12.7455 16.3918C12.5066 16.3918 12.313 16.6913 12.313 17.0607C12.313 17.4302 12.5066 17.7297 12.7455 17.7297Z" fill="black"/>
<path d="M12.7455 14.1872C12.9843 14.1872 13.1779 13.8877 13.1779 13.5183C13.1779 13.1489 12.9843 12.8494 12.7455 12.8494C12.5066 12.8494 12.313 13.1489 12.313 13.5183C12.313 13.8877 12.5066 14.1872 12.7455 14.1872Z" fill="black"/>
<path d="M25.6695 19.7823C25.9083 19.7823 26.1019 19.4828 26.1019 19.1133C26.1019 18.7439 25.9083 18.4444 25.6695 18.4444C25.4307 18.4444 25.2371 18.7439 25.2371 19.1133C25.2371 19.4828 25.4307 19.7823 25.6695 19.7823Z" fill="black"/>
<path d="M25.6695 16.2399C25.9083 16.2399 26.1019 15.9404 26.1019 15.571C26.1019 15.2015 25.9083 14.9021 25.6695 14.9021C25.4307 14.9021 25.2371 15.2015 25.2371 15.571C25.2371 15.9404 25.4307 16.2399 25.6695 16.2399Z" fill="black"/>
<path d="M23.0847 21.272C23.3236 21.272 23.5172 20.9725 23.5172 20.6031C23.5172 20.2336 23.3236 19.9342 23.0847 19.9342C22.8459 19.9342 22.6523 20.2336 22.6523 20.6031C22.6523 20.9725 22.8459 21.272 23.0847 21.272Z" fill="black"/>
<path d="M23.0847 17.7297C23.3236 17.7297 23.5172 17.4302 23.5172 17.0607C23.5172 16.6913 23.3236 16.3918 23.0847 16.3918C22.8459 16.3918 22.6523 16.6913 22.6523 17.0607C22.6523 17.4302 22.8459 17.7297 23.0847 17.7297Z" fill="black"/>
<path d="M23.0847 14.1872C23.3236 14.1872 23.5172 13.8877 23.5172 13.5183C23.5172 13.1489 23.3236 12.8494 23.0847 12.8494C22.8459 12.8494 22.6523 13.1489 22.6523 13.5183C22.6523 13.8877 22.8459 14.1872 23.0847 14.1872Z" fill="black"/>
<path d="M30.8392 16.2399C31.078 16.2399 31.2716 15.9404 31.2716 15.571C31.2716 15.2015 31.078 14.9021 30.8392 14.9021C30.6003 14.9021 30.4067 15.2015 30.4067 15.571C30.4067 15.9404 30.6003 16.2399 30.8392 16.2399Z" fill="black"/>
<path d="M28.2543 17.7297C28.4932 17.7297 28.6868 17.4302 28.6868 17.0607C28.6868 16.6913 28.4932 16.3918 28.2543 16.3918C28.0155 16.3918 27.8219 16.6913 27.8219 17.0607C27.8219 17.4302 28.0155 17.7297 28.2543 17.7297Z" fill="black"/>
<path d="M28.2543 14.1872C28.4932 14.1872 28.6868 13.8877 28.6868 13.5183C28.6868 13.1489 28.4932 12.8494 28.2543 12.8494C28.0155 12.8494 27.8219 13.1489 27.8219 13.5183C27.8219 13.8877 28.0155 14.1872 28.2543 14.1872Z" fill="black"/>
</svg>
