<svg width="33" height="33" viewBox="0 0 33 33" fill="none" xmlns="http://www.w3.org/2000/svg">
<g clip-path="url(#clip0_223_59)">
<path d="M16.5 22.1453C16.7687 22.1453 16.9865 21.9275 16.9865 21.6588C16.9865 21.3901 16.7687 21.1723 16.5 21.1723C16.2313 21.1723 16.0135 21.3901 16.0135 21.6588C16.0135 21.9275 16.2313 22.1453 16.5 22.1453Z" fill="black"/>
<path d="M16.5 19.569C16.7687 19.569 16.9865 19.3511 16.9865 19.0825C16.9865 18.8138 16.7687 18.596 16.5 18.596C16.2313 18.596 16.0135 18.8138 16.0135 19.0825C16.0135 19.3511 16.2313 19.569 16.5 19.569Z" fill="black"/>
<path d="M16.5 16.9927C16.7687 16.9927 16.9865 16.7749 16.9865 16.5062C16.9865 16.2375 16.7687 16.0197 16.5 16.0197C16.2313 16.0197 16.0135 16.2375 16.0135 16.5062C16.0135 16.7749 16.2313 16.9927 16.5 16.9927Z" fill="black"/>
<path d="M10.6842 19.569C10.9529 19.569 11.1707 19.3511 11.1707 19.0825C11.1707 18.8138 10.9529 18.596 10.6842 18.596C10.4155 18.596 10.1977 18.8138 10.1977 19.0825C10.1977 19.3511 10.4155 19.569 10.6842 19.569Z" fill="black"/>
<path d="M10.6842 16.9927C10.9529 16.9927 11.1707 16.7749 11.1707 16.5062C11.1707 16.2375 10.9529 16.0197 10.6842 16.0197C10.4155 16.0197 10.1977 16.2375 10.1977 16.5062C10.1977 16.7749 10.4155 16.9927 10.6842 16.9927Z" fill="black"/>
<path d="M13.5921 20.6524C13.8607 20.6524 14.0786 20.4346 14.0786 20.1659C14.0786 19.8972 13.8607 19.6794 13.5921 19.6794C13.3234 19.6794 13.1056 19.8972 13.1056 20.1659C13.1056 20.4346 13.3234 20.6524 13.5921 20.6524Z" fill="black"/>
<path d="M13.5921 18.0762C13.8607 18.0762 14.0786 17.8584 14.0786 17.5897C14.0786 17.321 13.8607 17.1032 13.5921 17.1032C13.3234 17.1032 13.1056 17.321 13.1056 17.5897C13.1056 17.8584 13.3234 18.0762 13.5921 18.0762Z" fill="black"/>
<path d="M13.5921 15.4998C13.8607 15.4998 14.0786 15.282 14.0786 15.0133C14.0786 14.7447 13.8607 14.5269 13.5921 14.5269C13.3234 14.5269 13.1056 14.7447 13.1056 15.0133C13.1056 15.282 13.3234 15.4998 13.5921 15.4998Z" fill="black"/>
<path d="M4.86833 16.9927C5.13701 16.9927 5.35482 16.7749 5.35482 16.5062C5.35482 16.2375 5.13701 16.0197 4.86833 16.0197C4.59965 16.0197 4.38184 16.2375 4.38184 16.5062C4.38184 16.7749 4.59965 16.9927 4.86833 16.9927Z" fill="black"/>
<path d="M7.77626 18.0762C8.04494 18.0762 8.26275 17.8584 8.26275 17.5897C8.26275 17.321 8.04494 17.1032 7.77626 17.1032C7.50758 17.1032 7.28977 17.321 7.28977 17.5897C7.28977 17.8584 7.50758 18.0762 7.77626 18.0762Z" fill="black"/>
<path d="M7.77626 15.4998C8.04494 15.4998 8.26275 15.282 8.26275 15.0133C8.26275 14.7447 8.04494 14.5269 7.77626 14.5269C7.50758 14.5269 7.28977 14.7447 7.28977 15.0133C7.28977 15.282 7.50758 15.4998 7.77626 15.4998Z" fill="black"/>
<path d="M22.3158 19.569C22.5845 19.569 22.8023 19.3511 22.8023 19.0825C22.8023 18.8138 22.5845 18.596 22.3158 18.596C22.0471 18.596 21.8293 18.8138 21.8293 19.0825C21.8293 19.3511 22.0471 19.569 22.3158 19.569Z" fill="black"/>
<path d="M22.3158 16.9927C22.5845 16.9927 22.8023 16.7749 22.8023 16.5062C22.8023 16.2375 22.5845 16.0197 22.3158 16.0197C22.0471 16.0197 21.8293 16.2375 21.8293 16.5062C21.8293 16.7749 22.0471 16.9927 22.3158 16.9927Z" fill="black"/>
<path d="M19.4079 20.6524C19.6766 20.6524 19.8944 20.4346 19.8944 20.1659C19.8944 19.8972 19.6766 19.6794 19.4079 19.6794C19.1392 19.6794 18.9214 19.8972 18.9214 20.1659C18.9214 20.4346 19.1392 20.6524 19.4079 20.6524Z" fill="black"/>
<path d="M19.4079 18.0762C19.6766 18.0762 19.8944 17.8584 19.8944 17.5897C19.8944 17.321 19.6766 17.1032 19.4079 17.1032C19.1392 17.1032 18.9214 17.321 18.9214 17.5897C18.9214 17.8584 19.1392 18.0762 19.4079 18.0762Z" fill="black"/>
<path d="M19.4079 15.4998C19.6766 15.4998 19.8944 15.282 19.8944 15.0133C19.8944 14.7447 19.6766 14.5269 19.4079 14.5269C19.1392 14.5269 18.9214 14.7447 18.9214 15.0133C18.9214 15.282 19.1392 15.4998 19.4079 15.4998Z" fill="black"/>
<path d="M28.1317 16.9927C28.4003 16.9927 28.6181 16.7749 28.6181 16.5062C28.6181 16.2375 28.4003 16.0197 28.1317 16.0197C27.863 16.0197 27.6452 16.2375 27.6452 16.5062C27.6452 16.7749 27.863 16.9927 28.1317 16.9927Z" fill="black"/>
<path d="M25.2237 18.0762C25.4924 18.0762 25.7102 17.8584 25.7102 17.5897C25.7102 17.321 25.4924 17.1032 25.2237 17.1032C24.955 17.1032 24.7372 17.321 24.7372 17.5897C24.7372 17.8584 24.955 18.0762 25.2237 18.0762Z" fill="black"/>
<path d="M25.2237 15.4998C25.4924 15.4998 25.7102 15.282 25.7102 15.0133C25.7102 14.7447 25.4924 14.5269 25.2237 14.5269C24.955 14.5269 24.7372 14.7447 24.7372 15.0133C24.7372 15.282 24.955 15.4998 25.2237 15.4998Z" fill="black"/>
<path d="M16.5 22.1453C16.7687 22.1453 16.9865 21.9275 16.9865 21.6588C16.9865 21.3901 16.7687 21.1723 16.5 21.1723C16.2313 21.1723 16.0135 21.3901 16.0135 21.6588C16.0135 21.9275 16.2313 22.1453 16.5 22.1453Z" fill="black"/>
<path d="M16.5 19.569C16.7687 19.569 16.9865 19.3511 16.9865 19.0825C16.9865 18.8138 16.7687 18.596 16.5 18.596C16.2313 18.596 16.0135 18.8138 16.0135 19.0825C16.0135 19.3511 16.2313 19.569 16.5 19.569Z" fill="black"/>
<path d="M16.5 16.9927C16.7687 16.9927 16.9865 16.7749 16.9865 16.5062C16.9865 16.2375 16.7687 16.0197 16.5 16.0197C16.2313 16.0197 16.0135 16.2375 16.0135 16.5062C16.0135 16.7749 16.2313 16.9927 16.5 16.9927Z" fill="black"/>
<path d="M10.6842 19.569C10.9529 19.569 11.1707 19.3511 11.1707 19.0825C11.1707 18.8138 10.9529 18.596 10.6842 18.596C10.4155 18.596 10.1977 18.8138 10.1977 19.0825C10.1977 19.3511 10.4155 19.569 10.6842 19.569Z" fill="black"/>
<path d="M10.6842 16.9927C10.9529 16.9927 11.1707 16.7749 11.1707 16.5062C11.1707 16.2375 10.9529 16.0197 10.6842 16.0197C10.4155 16.0197 10.1977 16.2375 10.1977 16.5062C10.1977 16.7749 10.4155 16.9927 10.6842 16.9927Z" fill="black"/>
<path d="M13.5921 20.6524C13.8607 20.6524 14.0786 20.4346 14.0786 20.1659C14.0786 19.8972 13.8607 19.6794 13.5921 19.6794C13.3234 19.6794 13.1056 19.8972 13.1056 20.1659C13.1056 20.4346 13.3234 20.6524 13.5921 20.6524Z" fill="black"/>
<path d="M13.5921 18.0762C13.8607 18.0762 14.0786 17.8584 14.0786 17.5897C14.0786 17.321 13.8607 17.1032 13.5921 17.1032C13.3234 17.1032 13.1056 17.321 13.1056 17.5897C13.1056 17.8584 13.3234 18.0762 13.5921 18.0762Z" fill="black"/>
<path d="M13.5921 15.4998C13.8607 15.4998 14.0786 15.282 14.0786 15.0133C14.0786 14.7447 13.8607 14.5269 13.5921 14.5269C13.3234 14.5269 13.1056 14.7447 13.1056 15.0133C13.1056 15.282 13.3234 15.4998 13.5921 15.4998Z" fill="black"/>
<path d="M4.86833 16.9927C5.13701 16.9927 5.35482 16.7749 5.35482 16.5062C5.35482 16.2375 5.13701 16.0197 4.86833 16.0197C4.59965 16.0197 4.38184 16.2375 4.38184 16.5062C4.38184 16.7749 4.59965 16.9927 4.86833 16.9927Z" fill="black"/>
<path d="M7.77626 18.0762C8.04494 18.0762 8.26275 17.8584 8.26275 17.5897C8.26275 17.321 8.04494 17.1032 7.77626 17.1032C7.50758 17.1032 7.28977 17.321 7.28977 17.5897C7.28977 17.8584 7.50758 18.0762 7.77626 18.0762Z" fill="black"/>
<path d="M7.77626 15.4998C8.04494 15.4998 8.26275 15.282 8.26275 15.0133C8.26275 14.7447 8.04494 14.5269 7.77626 14.5269C7.50758 14.5269 7.28977 14.7447 7.28977 15.0133C7.28977 15.282 7.50758 15.4998 7.77626 15.4998Z" fill="black"/>
<path d="M22.3158 19.569C22.5845 19.569 22.8023 19.3511 22.8023 19.0825C22.8023 18.8138 22.5845 18.596 22.3158 18.596C22.0471 18.596 21.8293 18.8138 21.8293 19.0825C21.8293 19.3511 22.0471 19.569 22.3158 19.569Z" fill="black"/>
<path d="M22.3158 16.9927C22.5845 16.9927 22.8023 16.7749 22.8023 16.5062C22.8023 16.2375 22.5845 16.0197 22.3158 16.0197C22.0471 16.0197 21.8293 16.2375 21.8293 16.5062C21.8293 16.7749 22.0471 16.9927 22.3158 16.9927Z" fill="black"/>
<path d="M19.4079 20.6524C19.6766 20.6524 19.8944 20.4346 19.8944 20.1659C19.8944 19.8972 19.6766 19.6794 19.4079 19.6794C19.1392 19.6794 18.9214 19.8972 18.9214 20.1659C18.9214 20.4346 19.1392 20.6524 19.4079 20.6524Z" fill="black"/>
<path d="M19.4079 18.0762C19.6766 18.0762 19.8944 17.8584 19.8944 17.5897C19.8944 17.321 19.6766 17.1032 19.4079 17.1032C19.1392 17.1032 18.9214 17.321 18.9214 17.5897C18.9214 17.8584 19.1392 18.0762 19.4079 18.0762Z" fill="black"/>
<path d="M19.4079 15.4998C19.6766 15.4998 19.8944 15.282 19.8944 15.0133C19.8944 14.7447 19.6766 14.5269 19.4079 14.5269C19.1392 14.5269 18.9214 14.7447 18.9214 15.0133C18.9214 15.282 19.1392 15.4998 19.4079 15.4998Z" fill="black"/>
<path d="M28.1317 16.9927C28.4003 16.9927 28.6181 16.7749 28.6181 16.5062C28.6181 16.2375 28.4003 16.0197 28.1317 16.0197C27.863 16.0197 27.6452 16.2375 27.6452 16.5062C27.6452 16.7749 27.863 16.9927 28.1317 16.9927Z" fill="black"/>
<path d="M25.2237 18.0762C25.4924 18.0762 25.7102 17.8584 25.7102 17.5897C25.7102 17.321 25.4924 17.1032 25.2237 17.1032C24.955 17.1032 24.7372 17.321 24.7372 17.5897C24.7372 17.8584 24.955 18.0762 25.2237 18.0762Z" fill="black"/>
<path d="M25.2237 15.4998C25.4924 15.4998 25.7102 15.282 25.7102 15.0133C25.7102 14.7447 25.4924 14.5269 25.2237 14.5269C24.955 14.5269 24.7372 14.7447 24.7372 15.0133C24.7372 15.282 24.955 15.4998 25.2237 15.4998Z" fill="black"/>
<path d="M32.1182 15.1937L27.6028 13.3746C27.3551 13.2747 27.0736 13.3947 26.9738 13.6424C26.874 13.89 26.9939 14.1717 27.2415 14.2714L31.7568 16.0906C32.1267 16.2395 32.1268 16.7632 31.7568 16.9122L17.7375 22.5602C16.9395 22.8818 16.0605 22.8818 15.2625 22.5602L1.24312 16.9122C0.873227 16.7632 0.873163 16.2396 1.24312 16.0906L5.74343 14.2775C5.99106 14.1777 6.11095 13.8961 6.01117 13.6484C5.9114 13.4007 5.6298 13.281 5.38211 13.3806L0.881864 15.1937C-0.293761 15.6673 -0.294148 17.3353 0.881864 17.8091L14.9012 23.4571C15.932 23.8724 17.0677 23.8725 18.0989 23.4571L32.1182 17.8091C33.2937 17.3355 33.2941 15.6674 32.1182 15.1937Z" fill="black"/>
<path d="M32.1182 22.2696L27.6234 20.4587C27.3757 20.3589 27.0941 20.4788 26.9943 20.7265C26.8945 20.9742 27.0144 21.2558 27.262 21.3556L31.7569 23.1665C32.1267 23.3154 32.1268 23.8391 31.7569 23.9882L17.7376 29.6361C16.9395 29.9577 16.0606 29.9577 15.2625 29.6361L1.24321 23.9882C0.873445 23.8391 0.873187 23.3154 1.24321 23.1664L5.73869 21.3553C5.98632 21.2555 6.1062 20.9738 6.00643 20.7262C5.90672 20.4786 5.62512 20.3588 5.37736 20.4584L0.881888 22.2695C-0.293801 22.7431 -0.294124 24.4111 0.881888 24.885L14.9012 30.5329C15.932 30.9483 17.0677 30.9483 18.0989 30.5329L32.1183 24.885C33.2938 24.4113 33.2942 22.7434 32.1182 22.2696Z" fill="black"/>
</g>
<defs>
<clipPath id="clip0_223_59">
<rect width="33" height="33" fill="white"/>
</clipPath>
</defs>
</svg>
