<svg width="33" height="33" viewBox="0 0 33 33" fill="none" xmlns="http://www.w3.org/2000/svg">
<g clip-path="url(#clip0_223_36)">
<path d="M16.5 22.1451C16.7687 22.1451 16.9865 21.9273 16.9865 21.6586C16.9865 21.3899 16.7687 21.1721 16.5 21.1721C16.2314 21.1721 16.0135 21.3899 16.0135 21.6586C16.0135 21.9273 16.2314 22.1451 16.5 22.1451Z" fill="black"/>
<path d="M16.5 19.5689C16.7687 19.5689 16.9865 19.3511 16.9865 19.0824C16.9865 18.8138 16.7687 18.5959 16.5 18.5959C16.2314 18.5959 16.0135 18.8138 16.0135 19.0824C16.0135 19.3511 16.2314 19.5689 16.5 19.5689Z" fill="black"/>
<path d="M16.5 16.9925C16.7687 16.9925 16.9865 16.7747 16.9865 16.506C16.9865 16.2373 16.7687 16.0195 16.5 16.0195C16.2314 16.0195 16.0135 16.2373 16.0135 16.506C16.0135 16.7747 16.2314 16.9925 16.5 16.9925Z" fill="black"/>
<path d="M10.6842 19.5689C10.9529 19.5689 11.1707 19.3511 11.1707 19.0824C11.1707 18.8138 10.9529 18.5959 10.6842 18.5959C10.4156 18.5959 10.1978 18.8138 10.1978 19.0824C10.1978 19.3511 10.4156 19.5689 10.6842 19.5689Z" fill="black"/>
<path d="M10.6842 16.9925C10.9529 16.9925 11.1707 16.7747 11.1707 16.506C11.1707 16.2373 10.9529 16.0195 10.6842 16.0195C10.4156 16.0195 10.1978 16.2373 10.1978 16.506C10.1978 16.7747 10.4156 16.9925 10.6842 16.9925Z" fill="black"/>
<path d="M13.5921 20.6524C13.8608 20.6524 14.0786 20.4346 14.0786 20.1659C14.0786 19.8973 13.8608 19.6794 13.5921 19.6794C13.3234 19.6794 13.1056 19.8973 13.1056 20.1659C13.1056 20.4346 13.3234 20.6524 13.5921 20.6524Z" fill="black"/>
<path d="M13.5921 18.076C13.8608 18.076 14.0786 17.8582 14.0786 17.5895C14.0786 17.3208 13.8608 17.103 13.5921 17.103C13.3234 17.103 13.1056 17.3208 13.1056 17.5895C13.1056 17.8582 13.3234 18.076 13.5921 18.076Z" fill="black"/>
<path d="M13.5921 15.4998C13.8608 15.4998 14.0786 15.282 14.0786 15.0133C14.0786 14.7447 13.8608 14.5269 13.5921 14.5269C13.3234 14.5269 13.1056 14.7447 13.1056 15.0133C13.1056 15.282 13.3234 15.4998 13.5921 15.4998Z" fill="black"/>
<path d="M4.86833 16.9925C5.13701 16.9925 5.35482 16.7747 5.35482 16.506C5.35482 16.2373 5.13701 16.0195 4.86833 16.0195C4.59965 16.0195 4.38184 16.2373 4.38184 16.506C4.38184 16.7747 4.59965 16.9925 4.86833 16.9925Z" fill="black"/>
<path d="M7.77629 18.076C8.04497 18.076 8.26278 17.8582 8.26278 17.5895C8.26278 17.3208 8.04497 17.103 7.77629 17.103C7.50761 17.103 7.28979 17.3208 7.28979 17.5895C7.28979 17.8582 7.50761 18.076 7.77629 18.076Z" fill="black"/>
<path d="M7.77629 15.4998C8.04497 15.4998 8.26278 15.282 8.26278 15.0133C8.26278 14.7447 8.04497 14.5269 7.77629 14.5269C7.50761 14.5269 7.28979 14.7447 7.28979 15.0133C7.28979 15.282 7.50761 15.4998 7.77629 15.4998Z" fill="black"/>
<path d="M22.3158 19.5689C22.5845 19.5689 22.8023 19.3511 22.8023 19.0824C22.8023 18.8138 22.5845 18.5959 22.3158 18.5959C22.0472 18.5959 21.8293 18.8138 21.8293 19.0824C21.8293 19.3511 22.0472 19.5689 22.3158 19.5689Z" fill="black"/>
<path d="M22.3158 16.9925C22.5845 16.9925 22.8023 16.7747 22.8023 16.506C22.8023 16.2373 22.5845 16.0195 22.3158 16.0195C22.0472 16.0195 21.8293 16.2373 21.8293 16.506C21.8293 16.7747 22.0472 16.9925 22.3158 16.9925Z" fill="black"/>
<path d="M19.4079 20.6524C19.6766 20.6524 19.8944 20.4346 19.8944 20.1659C19.8944 19.8973 19.6766 19.6794 19.4079 19.6794C19.1392 19.6794 18.9214 19.8973 18.9214 20.1659C18.9214 20.4346 19.1392 20.6524 19.4079 20.6524Z" fill="black"/>
<path d="M19.4079 18.076C19.6766 18.076 19.8944 17.8582 19.8944 17.5895C19.8944 17.3208 19.6766 17.103 19.4079 17.103C19.1392 17.103 18.9214 17.3208 18.9214 17.5895C18.9214 17.8582 19.1392 18.076 19.4079 18.076Z" fill="black"/>
<path d="M19.4079 15.4998C19.6766 15.4998 19.8944 15.282 19.8944 15.0133C19.8944 14.7447 19.6766 14.5269 19.4079 14.5269C19.1392 14.5269 18.9214 14.7447 18.9214 15.0133C18.9214 15.282 19.1392 15.4998 19.4079 15.4998Z" fill="black"/>
<path d="M28.1316 16.9925C28.4003 16.9925 28.6181 16.7747 28.6181 16.506C28.6181 16.2373 28.4003 16.0195 28.1316 16.0195C27.863 16.0195 27.6451 16.2373 27.6451 16.506C27.6451 16.7747 27.863 16.9925 28.1316 16.9925Z" fill="black"/>
<path d="M25.2237 18.076C25.4924 18.076 25.7102 17.8582 25.7102 17.5895C25.7102 17.3208 25.4924 17.103 25.2237 17.103C24.955 17.103 24.7372 17.3208 24.7372 17.5895C24.7372 17.8582 24.955 18.076 25.2237 18.076Z" fill="black"/>
<path d="M25.2237 15.4998C25.4924 15.4998 25.7102 15.282 25.7102 15.0133C25.7102 14.7447 25.4924 14.5269 25.2237 14.5269C24.955 14.5269 24.7372 14.7447 24.7372 15.0133C24.7372 15.282 24.955 15.4998 25.2237 15.4998Z" fill="black"/>
<path d="M0.881815 10.7305L9.17616 14.072L9.17661 14.0722C9.18305 14.0741 9.25602 14.1088 9.36107 14.1088H23.6389C23.7438 14.1088 23.8169 14.0742 23.8233 14.0722C23.8235 14.0722 23.8236 14.0721 23.8238 14.072L32.1181 10.7305C33.2937 10.2569 33.2941 8.58889 32.1181 8.11503L18.0988 2.46707C17.0677 2.05167 15.9321 2.05167 14.9011 2.46707L0.881815 8.11503C-0.293681 8.5887 -0.294196 10.2567 0.881815 10.7305ZM11.8547 13.1419L15.2625 11.769C16.0605 11.4475 16.9395 11.4475 17.7375 11.769L21.1453 13.1419H11.8547ZM1.24314 9.0119L15.2625 3.36393C16.0605 3.04238 16.9395 3.04238 17.7375 3.36393L31.7569 9.0119V9.01183C32.1266 9.16091 32.1269 9.68459 31.7569 9.83361L23.6389 13.1042L18.0989 10.8722C17.0679 10.4569 15.9321 10.4569 14.9011 10.8722L9.36107 13.1042L1.24314 9.83361C0.873308 9.68466 0.873114 9.16098 1.24314 9.0119Z" fill="black"/>
<path d="M32.1182 15.1937L27.6028 13.3746C27.3551 13.2747 27.0736 13.3947 26.9738 13.6424C26.874 13.89 26.9939 14.1717 27.2415 14.2714L31.7568 16.0906C32.1267 16.2395 32.1268 16.7632 31.7568 16.9122L17.7375 22.5602C16.9395 22.8818 16.0605 22.8818 15.2625 22.5602L1.24312 16.9122C0.873227 16.7632 0.873163 16.2396 1.24312 16.0906L5.74343 14.2775C5.99106 14.1777 6.11095 13.8961 6.01117 13.6484C5.9114 13.4007 5.6298 13.281 5.38211 13.3806L0.881864 15.1937C-0.293761 15.6673 -0.294148 17.3353 0.881864 17.8091L14.9012 23.4571C15.932 23.8724 17.0677 23.8725 18.0989 23.4571L32.1182 17.8091C33.2937 17.3355 33.2941 15.6674 32.1182 15.1937Z" fill="black"/>
<path d="M32.1182 22.2696L27.6234 20.4587C27.3757 20.3589 27.0941 20.4788 26.9943 20.7265C26.8945 20.9742 27.0144 21.2558 27.262 21.3556L31.7569 23.1665C32.1267 23.3154 32.1268 23.8391 31.7569 23.9882L17.7376 29.6361C16.9395 29.9577 16.0606 29.9577 15.2625 29.6361L1.24321 23.9882C0.873445 23.8391 0.873187 23.3154 1.24321 23.1664L5.73869 21.3553C5.98632 21.2555 6.1062 20.9738 6.00643 20.7262C5.90672 20.4786 5.62512 20.3588 5.37736 20.4584L0.881888 22.2695C-0.293801 22.7431 -0.294124 24.4111 0.881888 24.885L14.9012 30.5329C15.932 30.9483 17.0677 30.9483 18.0989 30.5329L32.1183 24.885C33.2938 24.4113 33.2942 22.7434 32.1182 22.2696Z" fill="black"/>
</g>
<defs>
<clipPath id="clip0_223_36">
<rect width="33" height="33" fill="white"/>
</clipPath>
</defs>
</svg>
