<svg width="113" height="66" viewBox="0 0 113 66" fill="none" xmlns="http://www.w3.org/2000/svg">
<g clip-path="url(#clip0_369_7)">
<path d="M5.81 56.23V65.49H3.25V56.23H0V54.01H9.06V56.23H5.81Z" fill="white"/>
<path d="M20.03 54.01V56.29H14.32V58.65H19.46V60.83H14.32V63.21H20.21V65.48H11.76V54.01H20.03Z" fill="white"/>
<path d="M31.3401 54.01H33.9001V65.49H31.3401L25.8701 58.3V65.49H23.3101V54.01H25.7101L31.3401 61.4V54.01Z" fill="white"/>
<path d="M37.55 54.01H40.11V58.72L44.44 54.01H47.61L43.05 59.08C43.44 59.63 44.17 60.65 45.23 62.14C46.29 63.63 47.08 64.75 47.61 65.48H44.62L41.25 60.95L40.1 62.23V65.48H37.54V54.01H37.55Z" fill="white"/>
<path d="M50.03 54.01H52.59V65.49H50.03V54.01Z" fill="white"/>
<path d="M61.39 54.01H63.95V65.49H61.39V54.01Z" fill="white"/>
<path d="M75.62 54.01H78.18V65.49H75.62L70.15 58.3V65.49H67.59V54.01H69.99L75.62 61.4V54.01Z" fill="white"/>
<path d="M90.59 55.51C91.68 56.51 92.23 57.9 92.23 59.69C92.23 61.47 91.7 62.89 90.63 63.93C89.56 64.97 87.93 65.49 85.75 65.49H81.83V54.01H85.89C87.93 54.01 89.5 54.51 90.59 55.51ZM88.71 62.34C89.34 61.75 89.65 60.89 89.65 59.76C89.65 58.63 89.34 57.77 88.71 57.16C88.08 56.55 87.11 56.25 85.81 56.25H84.38V63.23H86.01C87.18 63.22 88.08 62.93 88.71 62.34Z" fill="white"/>
<path d="M95.27 54.01H97.83V65.49H95.27V54.01Z" fill="white"/>
<path fill-rule="evenodd" clip-rule="evenodd" d="M76.3799 0.93C76.5399 0.62 76.7899 0.62 76.9499 0.93L77.4199 1.85C77.5799 2.16 77.8799 2.19 78.0999 1.92L78.7499 1.12C78.9699 0.85 79.2199 0.91 79.2999 1.24L79.5699 2.23C79.6599 2.56 79.9499 2.66 80.2199 2.44L80.9999 1.79C81.2699 1.57 81.4999 1.68 81.5199 2.02L81.5699 3.05C81.5899 3.39 81.8499 3.55 82.1599 3.39L83.0799 2.92C83.3899 2.76 83.5899 2.91 83.5399 3.25L83.3799 4.27C83.3299 4.61 83.5499 4.81 83.8799 4.72L84.8699 4.45C85.1999 4.36 85.3699 4.55 85.2499 4.87L84.8799 5.83C84.7599 6.15 84.9399 6.4 85.2799 6.38L86.3099 6.33C86.6499 6.31 86.7799 6.53 86.5899 6.82L86.0299 7.68C85.8399 7.97 85.9699 8.25 86.3099 8.3L87.3299 8.46C87.6699 8.51 87.7499 8.76 87.4999 9L86.7699 9.73C86.5299 9.97 86.5899 10.27 86.9099 10.39L87.8699 10.76C88.1899 10.88 88.2199 11.14 87.9299 11.32L87.0699 11.88C86.7799 12.07 86.7799 12.37 87.0699 12.56L87.9299 13.12C88.2199 13.31 88.1899 13.56 87.8699 13.68L86.9099 14.05C86.5899 14.17 86.5299 14.47 86.7699 14.71L87.4999 15.44C87.7399 15.68 87.6599 15.92 87.3299 15.98L86.3099 16.14C85.9699 16.19 85.8499 16.47 86.0299 16.76L86.5899 17.62C86.7799 17.91 86.6499 18.13 86.3099 18.11L85.2799 18.06C84.9399 18.04 84.7599 18.29 84.8799 18.61L85.2499 19.57C85.3699 19.89 85.1999 20.08 84.8699 19.99L83.8799 19.72C83.5499 19.63 83.3199 19.84 83.3799 20.17L83.5399 21.19C83.5899 21.53 83.3899 21.68 83.0799 21.52L82.1599 21.05C81.8499 20.89 81.5899 21.05 81.5699 21.39L81.5199 22.42C81.4999 22.76 81.2699 22.87 80.9999 22.65L80.1999 22C79.9299 21.78 79.6399 21.88 79.5499 22.21L79.2799 23.2C79.1899 23.53 78.9399 23.58 78.7299 23.32L78.0799 22.52C77.8599 22.25 77.5599 22.29 77.3999 22.59L76.9299 23.51C76.7699 23.82 76.5199 23.82 76.3599 23.51L75.8899 22.59C75.7299 22.28 75.4299 22.25 75.2099 22.52L74.5599 23.32C74.3399 23.59 74.0899 23.53 74.0099 23.2L73.7399 22.21C73.6499 21.88 73.3599 21.78 73.0899 22L72.2899 22.65C72.0199 22.87 71.7899 22.76 71.7699 22.42L71.7199 21.39C71.6999 21.05 71.4399 20.89 71.1299 21.05L70.2099 21.52C69.8999 21.68 69.6999 21.53 69.7499 21.19L69.9099 20.17C69.9599 19.83 69.7399 19.63 69.4099 19.72L68.4199 19.99C68.0899 20.08 67.9199 19.89 68.0399 19.57L68.4099 18.61C68.5299 18.29 68.3499 18.04 68.0099 18.06L66.9799 18.11C66.6399 18.13 66.5099 17.91 66.6999 17.62L67.2599 16.76C67.4499 16.47 67.3199 16.19 66.9799 16.14L65.9999 16C65.6599 15.95 65.5799 15.7 65.8299 15.46L66.5599 14.73C66.7999 14.49 66.7399 14.19 66.4199 14.07L65.4599 13.7C65.1399 13.58 65.1099 13.32 65.3999 13.14L66.2599 12.58C66.5499 12.39 66.5499 12.09 66.2599 11.9L65.3999 11.34C65.1099 11.15 65.1399 10.9 65.4599 10.78L66.4199 10.41C66.7399 10.29 66.7999 9.99 66.5599 9.75L65.8299 9.02C65.5799 8.77 65.6599 8.53 65.9999 8.47L67.0199 8.31C67.3599 8.26 67.4799 7.98 67.2999 7.69L66.7399 6.83C66.5499 6.54 66.6799 6.32 67.0199 6.34L68.0499 6.39C68.3899 6.41 68.5699 6.16 68.4499 5.84L68.0799 4.88C67.9599 4.56 68.1299 4.37 68.4599 4.46L69.4499 4.73C69.7799 4.82 70.0099 4.61 69.9499 4.28L69.7899 3.26C69.7399 2.92 69.9399 2.77 70.2499 2.93L71.1699 3.4C71.4799 3.56 71.7399 3.4 71.7599 3.06L71.8099 2.03C71.8299 1.69 72.0599 1.58 72.3299 1.8L73.1299 2.45C73.3999 2.67 73.6899 2.57 73.7799 2.24L74.0499 1.25C74.1399 0.92 74.3899 0.87 74.5999 1.13L75.2499 1.93C75.4699 2.2 75.7699 2.16 75.9299 1.86L76.3799 0.93Z" fill="url(#paint0_radial_369_7)"/>
<path fill-rule="evenodd" clip-rule="evenodd" d="M83.8901 12.23C83.8901 16.22 80.6501 19.46 76.6601 19.46C72.6701 19.46 69.4301 16.22 69.4301 12.23C69.4301 8.24 72.6701 5 76.6601 5C80.6601 5.01 83.8901 8.24 83.8901 12.23Z" fill="url(#paint1_radial_369_7)"/>
<path d="M91.45 29.16C91.45 24.28 87.49 20.32 82.61 20.32C82.2 20.32 81.8 20.36 81.41 20.41C79.88 17.78 77.03 16 73.77 16C73.32 16 72.89 16.04 72.46 16.11C70.3 11.61 65.71 8.51 60.39 8.51C54.51 8.51 49.51 12.31 47.72 17.58C46.77 17.3 45.76 17.14 44.72 17.14C38.96 17.14 34.29 21.81 34.29 27.57C34.29 33.33 38.96 38 44.72 38H83.54V37.95C87.99 37.49 91.45 33.73 91.45 29.16Z" fill="url(#paint2_radial_369_7)"/>
<path d="M33.31 42.9C33.31 42.9 29.75 33.42 37.02 30.57C44.29 27.72 52.41 24.3 53.84 18.6C56.54 34.42 46.28 47.38 33.31 42.9Z" fill="url(#paint3_radial_369_7)" stroke="white" stroke-width="2" stroke-miterlimit="10"/>
<path d="M33.31 42.9C33.31 42.9 29.75 33.42 37.02 30.57C44.29 27.72 52.41 24.3 53.84 18.6C56.54 34.42 46.28 47.38 33.31 42.9Z" fill="url(#paint4_radial_369_7)"/>
<path d="M42.33 34.99C37.38 37.84 34.63 41.08 33.35 42.91C46.3 47.35 56.54 34.4 53.83 18.6C53.26 23.96 49.74 30.71 42.33 34.99Z" fill="url(#paint5_radial_369_7)"/>
<path d="M24.85 17.2C29.12 17.72 44.82 31.69 33.67 46.16C17.17 40.23 21.1 21.01 24.85 17.2Z" fill="url(#paint6_radial_369_7)" stroke="white" stroke-width="2" stroke-miterlimit="10"/>
<path d="M32.11 35.75C28.59 30.89 24.84 17.2 24.84 17.2C21.09 21.01 17.16 40.22 33.66 46.16C33.66 46.16 35.64 40.6 32.11 35.75Z" fill="url(#paint7_radial_369_7)" stroke="white" stroke-width="2" stroke-miterlimit="10"/>
<path d="M24.89 17.2C29.16 17.72 44.86 31.69 33.71 46.16C17.21 40.23 21.14 21.01 24.89 17.2Z" fill="url(#paint8_radial_369_7)"/>
<path d="M32.16 35.75C28.64 30.89 24.89 17.2 24.89 17.2C21.14 21.01 17.21 40.22 33.71 46.16C33.71 46.16 35.68 40.6 32.16 35.75Z" fill="url(#paint9_radial_369_7)"/>
<path d="M31.07 10.16C31.07 9.99 30.93 9.79 30.74 9.81C30.32 9.84 29.91 9.88 29.49 9.91C29.3 9.7 29.12 9.48 28.95 9.25C29.2 8.95 29.35 8.56 29.36 8.16C29.36 8.06 29.35 7.96 29.33 7.86C29.66 7.74 29.98 7.62 30.3 7.48C30.31 7.49 30.33 7.49 30.34 7.5C30.43 7.55 30.52 7.6 30.61 7.65C30.7 7.7 30.78 7.76 30.87 7.82C30.91 7.85 30.96 7.89 31 7.92C31.02 7.94 31.05 7.96 31.07 7.98C31.14 8.04 31.21 8.09 31.31 8.09C31.39 8.09 31.49 8.06 31.55 8C31.67 7.88 31.71 7.64 31.57 7.52C31.4 7.37 31.22 7.24 31.04 7.12C31.17 7.05 31.31 6.98 31.44 6.91C31.6 6.82 31.68 6.61 31.58 6.45C31.49 6.29 31.28 6.22 31.12 6.31C30.98 6.39 30.83 6.47 30.68 6.55C30.73 6.34 30.78 6.13 30.83 5.91C30.87 5.74 30.79 5.53 30.6 5.48C30.43 5.44 30.22 5.52 30.17 5.71C30.07 6.11 29.98 6.52 29.88 6.92C29.76 6.97 29.64 7.02 29.52 7.07C29.48 7.09 29.44 7.1 29.39 7.12C29.38 7.12 29.36 7.13 29.35 7.13C29.33 7.14 29.31 7.15 29.29 7.15C29.22 7.18 29.15 7.2 29.08 7.22C28.88 6.9 28.58 6.65 28.2 6.51C28.09 6.47 27.98 6.44 27.86 6.43C27.85 6.09 27.83 5.74 27.79 5.4C27.94 5.25 28.1 5.11 28.27 4.98C28.35 4.92 28.44 4.87 28.53 4.81C28.68 4.72 28.77 4.51 28.67 4.35C28.58 4.2 28.37 4.11 28.21 4.21C28.02 4.32 27.85 4.44 27.68 4.58C27.65 4.43 27.63 4.27 27.6 4.12C27.56 3.94 27.36 3.83 27.19 3.87C27 3.91 26.9 4.1 26.93 4.28C26.96 4.44 26.99 4.59 27.02 4.75C26.83 4.63 26.64 4.52 26.45 4.4C26.3 4.31 26.07 4.35 25.98 4.51C25.89 4.67 25.92 4.88 26.09 4.98C26.44 5.19 26.79 5.4 27.14 5.62C27.17 5.9 27.18 6.18 27.19 6.47C26.84 6.56 26.52 6.75 26.29 7.03C26.2 7.14 26.13 7.25 26.07 7.38C25.74 7.28 25.41 7.2 25.07 7.13C25 7 24.93 6.86 24.88 6.72C24.82 6.56 24.77 6.4 24.73 6.23C24.69 6.06 24.49 5.93 24.32 5.98C24.14 6.03 24.03 6.21 24.07 6.39C24.12 6.59 24.18 6.79 24.25 6.99C24.09 6.97 23.93 6.94 23.77 6.92C23.59 6.9 23.42 7.08 23.42 7.25C23.42 7.45 23.57 7.58 23.75 7.6C23.9 7.62 24.05 7.64 24.21 7.66C24.04 7.81 23.86 7.96 23.69 8.11C23.55 8.23 23.54 8.47 23.67 8.59C23.81 8.72 24.01 8.73 24.15 8.61C24.46 8.35 24.76 8.08 25.07 7.82C25.35 7.88 25.62 7.95 25.89 8.03C25.87 8.37 25.94 8.72 26.12 9.02C26.2 9.15 26.3 9.27 26.4 9.38C26.2 9.67 26.02 9.96 25.85 10.26C25.82 10.27 25.79 10.27 25.77 10.28C25.72 10.29 25.67 10.29 25.62 10.3C25.62 10.3 25.62 10.3 25.61 10.3H25.6C25.57 10.3 25.55 10.3 25.52 10.31C25.3 10.33 25.09 10.32 24.87 10.3C24.69 10.28 24.52 10.46 24.52 10.63C24.52 10.83 24.66 10.96 24.85 10.98C25.05 11 25.26 11 25.46 10.99C25.4 11.11 25.34 11.23 25.28 11.36C25.2 11.53 25.22 11.72 25.39 11.83C25.53 11.92 25.78 11.89 25.86 11.72C25.93 11.56 26.01 11.39 26.09 11.23C26.18 11.45 26.27 11.67 26.36 11.89C26.39 11.97 26.49 12.03 26.56 12.06C26.64 12.08 26.75 12.08 26.82 12.03C26.9 11.98 26.96 11.92 26.99 11.83C27.01 11.74 27 11.66 26.96 11.57C26.81 11.21 26.65 10.84 26.5 10.48C26.65 10.23 26.8 9.99 26.96 9.76C27.26 9.88 27.6 9.92 27.93 9.86C28.1 9.83 28.26 9.77 28.4 9.69C28.61 9.96 28.83 10.23 29.06 10.48C29.06 10.51 29.05 10.54 29.05 10.58C29.05 10.57 29.05 10.57 29.05 10.57C29.05 10.58 29.05 10.58 29.05 10.59C29.04 10.62 29.04 10.65 29.03 10.68C29.02 10.73 29.01 10.79 28.99 10.84C28.94 11.05 28.87 11.25 28.78 11.45C28.75 11.53 28.77 11.64 28.81 11.71C28.85 11.78 28.93 11.85 29.01 11.88C29.1 11.9 29.19 11.9 29.27 11.85C29.35 11.8 29.4 11.74 29.44 11.65C29.52 11.47 29.58 11.28 29.63 11.09C29.73 11.19 29.83 11.29 29.94 11.39C30.07 11.51 30.29 11.55 30.42 11.41C30.54 11.29 30.58 11.06 30.44 10.93C30.31 10.81 30.19 10.69 30.06 10.57C30.27 10.55 30.48 10.53 30.7 10.52C30.79 10.51 30.87 10.49 30.94 10.43C31.03 10.35 31.07 10.25 31.07 10.16ZM26.65 7.72C26.65 7.71 26.66 7.69 26.65 7.72V7.72ZM28.22 9.01C28.21 9.01 28.21 9.02 28.2 9.02C28.18 9.03 28.16 9.04 28.14 9.06C28.11 9.08 28.08 9.09 28.05 9.11C28.05 9.11 28 9.13 27.99 9.14C27.76 9.22 27.53 9.22 27.33 9.17C27.12 9.11 26.95 9 26.8 8.82C26.75 8.76 26.77 8.79 26.73 8.72C26.7 8.67 26.67 8.62 26.65 8.56C26.64 8.55 26.64 8.54 26.64 8.54C26.64 8.53 26.64 8.53 26.63 8.51C26.62 8.49 26.62 8.46 26.61 8.44C26.6 8.4 26.59 8.37 26.59 8.33L26.58 8.26C26.57 8.13 26.58 8 26.6 7.92C26.61 7.86 26.63 7.81 26.65 7.75C26.65 7.74 26.65 7.74 26.66 7.73C26.68 7.69 26.7 7.65 26.73 7.61C26.85 7.42 26.99 7.3 27.2 7.2C27.27 7.16 27.39 7.13 27.51 7.11C27.52 7.11 27.52 7.11 27.52 7.11C27.53 7.11 27.54 7.11 27.55 7.11C27.58 7.11 27.61 7.11 27.64 7.11C27.67 7.11 27.7 7.11 27.73 7.11C27.75 7.11 27.77 7.11 27.79 7.12C27.79 7.12 27.79 7.12 27.8 7.12C27.87 7.13 27.94 7.15 28.01 7.18C28.02 7.18 28.04 7.19 28.05 7.2C28.08 7.22 28.11 7.23 28.15 7.25C28.29 7.33 28.33 7.37 28.43 7.49C28.58 7.66 28.67 7.92 28.67 8.16C28.67 8.41 28.61 8.59 28.46 8.8C28.41 8.87 28.35 8.93 28.25 9.01C28.23 9 28.22 9 28.22 9.01Z" fill="#45C2E4"/>
<path d="M38.77 5.57C38.68 5.48 38.51 5.45 38.41 5.56C38.21 5.79 38.01 6.03 37.81 6.26C37.6 6.25 37.39 6.22 37.18 6.2C37.15 5.91 37.03 5.63 36.83 5.42C36.78 5.37 36.72 5.32 36.66 5.28C36.77 5.05 36.87 4.82 36.97 4.58C36.98 4.58 36.99 4.57 37 4.57C37.07 4.55 37.15 4.53 37.22 4.51C37.29 4.49 37.37 4.48 37.45 4.47C37.49 4.46 37.53 4.46 37.57 4.46C37.59 4.46 37.61 4.46 37.64 4.46C37.71 4.46 37.77 4.44 37.82 4.39C37.86 4.35 37.9 4.28 37.9 4.22C37.9 4.09 37.8 3.95 37.66 3.96C37.5 3.94 37.33 3.97 37.18 4C37.21 3.89 37.25 3.79 37.28 3.68C37.32 3.55 37.25 3.4 37.11 3.37C36.98 3.34 36.83 3.4 36.8 3.54C36.77 3.66 36.73 3.77 36.69 3.89C36.61 3.75 36.52 3.62 36.44 3.48C36.37 3.37 36.22 3.3 36.1 3.38C35.99 3.45 35.92 3.6 36 3.72C36.16 3.98 36.32 4.24 36.48 4.5C36.44 4.59 36.41 4.68 36.37 4.77C36.36 4.8 36.34 4.83 36.33 4.86C36.33 4.87 36.32 4.88 36.32 4.89C36.31 4.9 36.31 4.92 36.3 4.93C36.28 4.98 36.25 5.03 36.23 5.08C35.94 5 35.65 5.03 35.39 5.14C35.31 5.17 35.24 5.22 35.17 5.27C34.99 5.1 34.8 4.93 34.6 4.77C34.6 4.61 34.61 4.46 34.63 4.3C34.64 4.23 34.66 4.15 34.68 4.08C34.71 3.95 34.65 3.8 34.51 3.77C34.38 3.74 34.23 3.8 34.2 3.94C34.16 4.09 34.13 4.25 34.11 4.41C34.02 4.34 33.92 4.28 33.83 4.21C33.72 4.13 33.55 4.18 33.48 4.29C33.41 4.41 33.45 4.56 33.56 4.64C33.66 4.71 33.75 4.77 33.85 4.84C33.69 4.88 33.53 4.92 33.37 4.95C33.24 4.98 33.14 5.12 33.18 5.25C33.21 5.38 33.34 5.47 33.48 5.44C33.77 5.37 34.07 5.3 34.36 5.23C34.52 5.36 34.67 5.5 34.83 5.65C34.69 5.88 34.63 6.14 34.65 6.41C34.66 6.51 34.68 6.61 34.71 6.71C34.49 6.83 34.27 6.96 34.06 7.09C33.95 7.06 33.85 7.02 33.75 6.97C33.64 6.92 33.53 6.86 33.42 6.79C33.31 6.72 33.14 6.75 33.07 6.87C33 6.99 33.03 7.14 33.14 7.22C33.27 7.3 33.41 7.38 33.55 7.44C33.45 7.51 33.36 7.58 33.26 7.65C33.15 7.73 33.16 7.91 33.25 8.01C33.35 8.12 33.5 8.11 33.61 8.02C33.7 7.95 33.79 7.88 33.88 7.82C33.87 7.99 33.85 8.16 33.84 8.32C33.83 8.45 33.95 8.58 34.08 8.58C34.22 8.58 34.33 8.48 34.34 8.34C34.36 8.04 34.39 7.75 34.41 7.45C34.59 7.34 34.77 7.23 34.95 7.14C35.11 7.33 35.33 7.48 35.58 7.54C35.69 7.57 35.8 7.58 35.91 7.58C35.95 7.83 36.01 8.08 36.07 8.32C36.06 8.34 36.05 8.36 36.04 8.37C36.02 8.4 35.99 8.43 35.97 8.46C35.97 8.46 35.97 8.47 35.96 8.47C35.95 8.48 35.94 8.5 35.92 8.51C35.82 8.63 35.7 8.74 35.58 8.84C35.48 8.92 35.48 9.11 35.57 9.2C35.67 9.3 35.82 9.3 35.93 9.21C36.05 9.12 36.15 9.01 36.25 8.9C36.28 9 36.31 9.09 36.35 9.19C36.4 9.32 36.5 9.41 36.65 9.38C36.77 9.35 36.89 9.21 36.84 9.08C36.79 8.96 36.75 8.83 36.71 8.7C36.87 8.77 37.03 8.83 37.19 8.9C37.25 8.92 37.33 8.91 37.38 8.88C37.43 8.85 37.49 8.79 37.5 8.73C37.52 8.67 37.52 8.6 37.48 8.54C37.44 8.48 37.4 8.44 37.33 8.42C37.06 8.31 36.79 8.2 36.53 8.08C36.48 7.88 36.43 7.67 36.4 7.46C36.62 7.37 36.82 7.21 36.96 7.01C37.03 6.91 37.08 6.8 37.12 6.68C37.37 6.71 37.62 6.74 37.88 6.76C37.89 6.78 37.91 6.8 37.93 6.82C37.93 6.82 37.93 6.82 37.92 6.81L37.93 6.82C37.94 6.84 37.95 6.86 37.97 6.87C37.99 6.9 38.01 6.94 38.03 6.97C38.11 7.11 38.18 7.25 38.24 7.4C38.26 7.46 38.33 7.51 38.39 7.52C38.45 7.54 38.53 7.53 38.58 7.5C38.64 7.47 38.69 7.42 38.7 7.35C38.72 7.28 38.71 7.22 38.68 7.16C38.63 7.02 38.56 6.89 38.49 6.77C38.6 6.77 38.7 6.77 38.81 6.77C38.94 6.76 39.07 6.67 39.07 6.53C39.07 6.4 38.97 6.26 38.83 6.27C38.7 6.27 38.57 6.28 38.45 6.28C38.55 6.16 38.65 6.04 38.76 5.92C38.8 5.87 38.84 5.82 38.84 5.75C38.85 5.69 38.82 5.62 38.77 5.57ZM35.2 6.58C35.19 6.55 35.19 6.57 35.2 6.58V6.58ZM36.68 6.44C36.68 6.44 36.68 6.45 36.68 6.46C36.68 6.48 36.67 6.49 36.67 6.51C36.66 6.54 36.65 6.56 36.65 6.58L36.63 6.62C36.55 6.78 36.44 6.9 36.3 6.97C36.15 7.06 36 7.09 35.83 7.07C35.77 7.06 35.8 7.07 35.74 7.05C35.7 7.04 35.66 7.03 35.62 7.01C35.61 7.01 35.61 7 35.6 7C35.6 7 35.59 6.99 35.58 6.99C35.56 6.98 35.55 6.97 35.53 6.96C35.51 6.95 35.48 6.93 35.46 6.92L35.42 6.89C35.35 6.83 35.29 6.75 35.26 6.7C35.24 6.66 35.22 6.62 35.2 6.58C35.2 6.58 35.2 6.57 35.19 6.57C35.18 6.54 35.17 6.5 35.16 6.47C35.12 6.31 35.13 6.17 35.19 6.01C35.21 5.95 35.25 5.88 35.31 5.8C35.31 5.8 35.31 5.79 35.32 5.79L35.33 5.78C35.35 5.76 35.36 5.75 35.38 5.73C35.4 5.71 35.41 5.7 35.43 5.68C35.44 5.67 35.45 5.66 35.47 5.65C35.47 5.65 35.47 5.65 35.48 5.65C35.52 5.62 35.57 5.6 35.62 5.57C35.63 5.57 35.64 5.56 35.65 5.56C35.68 5.55 35.7 5.54 35.73 5.54C35.84 5.51 35.88 5.51 36 5.52C36.17 5.53 36.35 5.62 36.47 5.74C36.6 5.87 36.66 5.99 36.69 6.18C36.7 6.24 36.7 6.31 36.69 6.4C36.68 6.43 36.68 6.44 36.68 6.44Z" fill="#45C2E4"/>
<path d="M37.93 6.82C37.91 6.79 37.92 6.81 37.93 6.82V6.82Z" fill="#45C2E4"/>
<path d="M27.44 14.26C27.4 14.22 27.32 14.2 27.27 14.25C27.18 14.36 27.08 14.47 26.99 14.58C26.89 14.57 26.79 14.56 26.7 14.55C26.69 14.41 26.63 14.28 26.53 14.18C26.5 14.15 26.48 14.13 26.45 14.11C26.5 14 26.55 13.89 26.59 13.78H26.6C26.63 13.77 26.67 13.76 26.7 13.75C26.73 13.74 26.77 13.74 26.81 13.73C26.83 13.73 26.85 13.73 26.87 13.72C26.88 13.72 26.89 13.72 26.9 13.72C26.93 13.72 26.96 13.71 26.99 13.69C27.01 13.67 27.03 13.64 27.03 13.61C27.03 13.55 26.98 13.48 26.92 13.49C26.84 13.49 26.77 13.51 26.69 13.52C26.71 13.47 26.72 13.42 26.74 13.37C26.76 13.31 26.72 13.24 26.66 13.22C26.6 13.2 26.53 13.23 26.51 13.3C26.49 13.36 26.48 13.41 26.46 13.46C26.42 13.4 26.38 13.33 26.34 13.27C26.31 13.22 26.24 13.19 26.18 13.22C26.13 13.25 26.1 13.32 26.13 13.38C26.2 13.5 26.28 13.62 26.35 13.75C26.33 13.79 26.32 13.83 26.3 13.87C26.29 13.88 26.29 13.9 26.28 13.91C26.28 13.91 26.28 13.92 26.27 13.92C26.27 13.93 26.26 13.93 26.26 13.94C26.25 13.96 26.24 13.99 26.23 14.01C26.1 13.98 25.97 13.99 25.84 14.05C25.8 14.07 25.77 14.09 25.74 14.11C25.65 14.03 25.57 13.95 25.47 13.87C25.47 13.8 25.47 13.72 25.49 13.65C25.5 13.62 25.5 13.58 25.51 13.55C25.53 13.49 25.5 13.42 25.43 13.4C25.37 13.38 25.3 13.41 25.28 13.48C25.26 13.55 25.25 13.63 25.24 13.7C25.2 13.67 25.15 13.64 25.11 13.61C25.06 13.57 24.98 13.6 24.95 13.65C24.92 13.71 24.93 13.78 24.99 13.81C25.04 13.84 25.08 13.87 25.13 13.91C25.06 13.93 24.98 13.95 24.91 13.96C24.85 13.97 24.8 14.04 24.82 14.1C24.84 14.16 24.9 14.21 24.96 14.19C25.1 14.16 25.23 14.12 25.37 14.09C25.44 14.15 25.52 14.22 25.59 14.29C25.53 14.4 25.49 14.52 25.51 14.65C25.51 14.7 25.52 14.74 25.54 14.79C25.44 14.85 25.33 14.91 25.23 14.97C25.18 14.95 25.13 14.94 25.08 14.92C25.03 14.89 24.97 14.87 24.92 14.83C24.87 14.8 24.79 14.81 24.76 14.87C24.73 14.93 24.74 15 24.8 15.03C24.86 15.07 24.92 15.1 24.99 15.13C24.94 15.16 24.9 15.2 24.86 15.23C24.81 15.27 24.81 15.35 24.85 15.4C24.9 15.45 24.97 15.44 25.02 15.41C25.06 15.38 25.1 15.35 25.15 15.31C25.14 15.39 25.14 15.47 25.13 15.55C25.13 15.61 25.18 15.67 25.24 15.67C25.31 15.67 25.36 15.62 25.36 15.56C25.37 15.42 25.38 15.28 25.39 15.14C25.47 15.09 25.56 15.04 25.64 14.99C25.72 15.08 25.82 15.15 25.94 15.18C25.99 15.19 26.04 15.2 26.1 15.2C26.12 15.32 26.15 15.43 26.18 15.55C26.17 15.56 26.17 15.57 26.16 15.57C26.15 15.58 26.14 15.6 26.13 15.61C26.12 15.62 26.12 15.62 26.11 15.63C26.06 15.69 26.01 15.74 25.95 15.78C25.9 15.82 25.9 15.9 25.95 15.95C26 16 26.07 16 26.12 15.96C26.17 15.92 26.22 15.87 26.27 15.81C26.28 15.85 26.3 15.9 26.32 15.94C26.34 16 26.39 16.05 26.46 16.03C26.52 16.02 26.57 15.95 26.55 15.89C26.53 15.83 26.51 15.77 26.49 15.71C26.57 15.74 26.64 15.77 26.72 15.8C26.75 15.81 26.79 15.8 26.81 15.79C26.84 15.78 26.86 15.75 26.87 15.72C26.88 15.69 26.88 15.66 26.86 15.63C26.84 15.6 26.82 15.58 26.79 15.57C26.66 15.52 26.54 15.46 26.41 15.41C26.39 15.31 26.37 15.22 26.35 15.12C26.45 15.08 26.55 15 26.61 14.91C26.64 14.86 26.67 14.81 26.69 14.75C26.81 14.77 26.93 14.78 27.04 14.79C27.05 14.8 27.05 14.81 27.06 14.82C27.06 14.82 27.06 14.82 27.06 14.83C27.07 14.84 27.07 14.85 27.08 14.85C27.09 14.87 27.1 14.88 27.11 14.9C27.15 14.96 27.18 15.03 27.21 15.1C27.22 15.13 27.25 15.15 27.28 15.16C27.31 15.17 27.34 15.17 27.37 15.15C27.4 15.13 27.42 15.11 27.43 15.08C27.44 15.05 27.43 15.02 27.42 14.99C27.4 14.93 27.36 14.87 27.33 14.81C27.38 14.81 27.43 14.81 27.48 14.81C27.54 14.81 27.6 14.76 27.6 14.7C27.6 14.64 27.55 14.57 27.49 14.58C27.43 14.58 27.37 14.58 27.31 14.58C27.36 14.52 27.41 14.47 27.45 14.41C27.47 14.39 27.49 14.36 27.49 14.33C27.47 14.32 27.46 14.28 27.44 14.26ZM25.76 14.73C25.75 14.72 25.75 14.73 25.76 14.73V14.73ZM26.45 14.67C26.45 14.69 26.44 14.7 26.44 14.7C26.44 14.71 26.43 14.72 26.43 14.73L26.42 14.75C26.38 14.83 26.33 14.88 26.26 14.92C26.19 14.96 26.12 14.97 26.04 14.96C26.01 14.96 26.02 14.96 26 14.95C25.98 14.94 25.96 14.94 25.94 14.93H25.93C25.93 14.93 25.93 14.93 25.92 14.93C25.91 14.93 25.91 14.92 25.9 14.92C25.89 14.91 25.88 14.91 25.87 14.9L25.85 14.89C25.82 14.86 25.79 14.83 25.77 14.8C25.76 14.78 25.75 14.76 25.74 14.74C25.74 14.74 25.74 14.74 25.74 14.73C25.73 14.71 25.73 14.7 25.73 14.68C25.71 14.61 25.72 14.54 25.74 14.47C25.75 14.44 25.77 14.41 25.8 14.37C25.8 14.37 25.8 14.37 25.81 14.36C25.82 14.35 25.82 14.34 25.83 14.34C25.84 14.33 25.85 14.33 25.85 14.32C25.86 14.32 25.86 14.31 25.87 14.31C25.89 14.3 25.91 14.28 25.94 14.27C25.94 14.27 25.95 14.27 25.96 14.26C25.97 14.26 25.98 14.25 26 14.25C26.05 14.24 26.07 14.24 26.13 14.24C26.21 14.25 26.29 14.29 26.35 14.35C26.41 14.41 26.44 14.47 26.45 14.56C26.46 14.59 26.46 14.62 26.45 14.67Z" fill="#45C2E4"/>
<path d="M27.0401 14.85C27.0301 14.83 27.0301 14.84 27.0401 14.85V14.85Z" fill="#45C2E4"/>
<path d="M34.93 15.24C34.93 15.25 34.93 15.25 34.93 15.26C34.92 15.25 34.92 15.25 34.93 15.24Z" fill="#45C2E4"/>
<path d="M32.49 16.92L32.48 16.91H32.49V16.92Z" fill="#45C2E4"/>
<path d="M38.49 16.31C38.51 16.23 38.51 16.12 38.46 16.05C38.41 15.97 38.35 15.91 38.26 15.88C38.17 15.86 38.08 15.86 38 15.91C37.74 16.07 37.47 16.23 37.21 16.38C37.1 16.32 36.99 16.27 36.88 16.21C36.97 16.03 37.06 15.86 37.14 15.67C37.21 15.51 37.08 15.29 36.91 15.24C36.71 15.19 36.56 15.29 36.48 15.47C36.47 15.5 36.45 15.53 36.44 15.56C36.44 15.57 36.42 15.59 36.42 15.61C36.39 15.67 36.36 15.74 36.33 15.8C36.31 15.83 36.3 15.86 36.28 15.89C36.04 15.77 35.81 15.65 35.57 15.52C35.62 15.37 35.64 15.21 35.63 15.04C35.63 15.02 35.63 14.99 35.62 14.97C35.61 14.84 35.58 14.72 35.54 14.6C35.76 14.46 35.98 14.31 36.21 14.17C36.28 14.3 36.34 14.44 36.4 14.58C36.47 14.74 36.71 14.81 36.86 14.72C37.03 14.62 37.08 14.43 37 14.26C36.93 14.11 36.86 13.95 36.78 13.81C36.9 13.73 37.03 13.65 37.15 13.57C37.39 13.69 37.62 13.82 37.86 13.94C37.94 13.98 38.03 14.01 38.12 13.98C38.2 13.96 38.29 13.9 38.33 13.83C38.42 13.68 38.39 13.45 38.22 13.36C37.96 13.22 37.69 13.08 37.43 12.95C37.43 12.67 37.42 12.4 37.42 12.12C37.42 12.03 37.39 11.94 37.33 11.88C37.27 11.82 37.17 11.77 37.09 11.77C36.91 11.77 36.74 11.91 36.74 12.1C36.75 12.41 36.75 12.71 36.75 13.02C36.65 13.09 36.54 13.16 36.44 13.22C36.33 13.05 36.22 12.89 36.11 12.73C36.06 12.66 35.95 12.62 35.87 12.62C35.79 12.62 35.69 12.65 35.63 12.71C35.57 12.77 35.52 12.86 35.52 12.95C35.52 13.04 35.56 13.12 35.61 13.19C35.63 13.22 35.65 13.25 35.67 13.27L35.66 13.26C35.66 13.27 35.67 13.27 35.67 13.28C35.68 13.29 35.69 13.3 35.67 13.28C35.68 13.29 35.68 13.3 35.69 13.3C35.73 13.36 35.77 13.41 35.81 13.47C35.83 13.5 35.85 13.54 35.87 13.57C35.64 13.72 35.42 13.86 35.19 14.01C35.02 13.83 34.81 13.69 34.55 13.6C34.5 13.58 34.44 13.57 34.39 13.56C34.38 13.3 34.36 13.04 34.35 12.78C34.5 12.79 34.65 12.8 34.8 12.82C34.98 12.84 35.15 12.66 35.15 12.49C35.15 12.29 35.01 12.16 34.82 12.14C34.65 12.12 34.49 12.11 34.32 12.1C34.31 11.95 34.31 11.8 34.3 11.66C34.53 11.52 34.75 11.38 34.98 11.23C35.06 11.18 35.12 11.12 35.15 11.03C35.17 10.95 35.17 10.84 35.12 10.77C35.07 10.69 35.01 10.63 34.92 10.6C34.84 10.58 34.74 10.58 34.66 10.63C34.41 10.79 34.16 10.95 33.91 11.11C33.67 10.98 33.43 10.84 33.19 10.71C33.11 10.67 33.02 10.65 32.93 10.67C32.85 10.69 32.76 10.75 32.72 10.82C32.63 10.97 32.66 11.2 32.83 11.29C33.1 11.44 33.37 11.59 33.64 11.74C33.65 11.87 33.65 11.99 33.66 12.12C33.46 12.13 33.26 12.14 33.07 12.17C32.89 12.19 32.77 12.42 32.82 12.58C32.88 12.78 33.04 12.85 33.23 12.83C33.24 12.83 33.26 12.83 33.27 12.83C33.27 12.83 33.28 12.83 33.29 12.83C33.32 12.83 33.35 12.82 33.38 12.82C33.45 12.81 33.52 12.81 33.59 12.81C33.62 12.81 33.66 12.81 33.69 12.81C33.7 13.08 33.72 13.34 33.73 13.61C33.43 13.69 33.16 13.85 32.94 14.08C32.71 13.96 32.47 13.84 32.24 13.72C32.32 13.6 32.41 13.47 32.49 13.35C32.6 13.21 32.54 12.96 32.38 12.88C32.21 12.78 32.02 12.83 31.91 12.99C31.81 13.13 31.72 13.27 31.62 13.41C31.49 13.34 31.36 13.28 31.23 13.21C31.22 12.94 31.21 12.68 31.2 12.41C31.2 12.32 31.17 12.24 31.11 12.17C31.05 12.11 30.95 12.06 30.87 12.06C30.69 12.06 30.51 12.2 30.52 12.39C30.53 12.69 30.54 12.98 30.56 13.28C30.32 13.42 30.09 13.56 29.85 13.71C29.77 13.76 29.71 13.82 29.68 13.91C29.66 13.99 29.66 14.1 29.71 14.17C29.76 14.25 29.82 14.31 29.91 14.34C30 14.36 30.09 14.36 30.17 14.31C30.43 14.15 30.7 13.99 30.96 13.84C31.07 13.9 31.18 13.95 31.29 14.01C31.2 14.19 31.11 14.36 31.03 14.55C30.96 14.71 31.09 14.93 31.26 14.98C31.46 15.03 31.61 14.93 31.69 14.75C31.7 14.72 31.72 14.69 31.73 14.66C31.73 14.65 31.75 14.63 31.75 14.61C31.78 14.55 31.81 14.48 31.84 14.42C31.86 14.39 31.87 14.36 31.89 14.33C32.13 14.45 32.37 14.57 32.6 14.7C32.51 15 32.52 15.32 32.61 15.62C32.39 15.76 32.17 15.9 31.95 16.05C31.88 15.92 31.82 15.78 31.76 15.64C31.69 15.48 31.45 15.41 31.3 15.5C31.13 15.6 31.08 15.79 31.16 15.96C31.23 16.11 31.3 16.27 31.38 16.41C31.26 16.49 31.13 16.57 31.01 16.65C30.77 16.53 30.54 16.4 30.3 16.28C30.22 16.24 30.13 16.21 30.04 16.24C29.96 16.26 29.87 16.32 29.83 16.39C29.74 16.54 29.77 16.77 29.94 16.86C30.2 17 30.47 17.14 30.73 17.27C30.73 17.55 30.74 17.82 30.74 18.1C30.74 18.19 30.77 18.28 30.83 18.34C30.89 18.4 30.99 18.45 31.07 18.45C31.25 18.45 31.42 18.31 31.42 18.12C31.41 17.81 31.41 17.51 31.4 17.2C31.5 17.13 31.61 17.06 31.71 17C31.82 17.17 31.93 17.33 32.04 17.49C32.09 17.56 32.2 17.6 32.28 17.6C32.36 17.6 32.46 17.57 32.52 17.51C32.58 17.45 32.63 17.36 32.63 17.27C32.63 17.18 32.59 17.1 32.54 17.03C32.52 17 32.5 16.98 32.48 16.95L32.49 16.96C32.49 16.95 32.48 16.95 32.48 16.95C32.46 16.93 32.47 16.94 32.48 16.95C32.47 16.94 32.47 16.93 32.46 16.93C32.42 16.87 32.38 16.82 32.34 16.76C32.32 16.73 32.3 16.69 32.28 16.66C32.51 16.51 32.73 16.37 32.96 16.22C33.18 16.44 33.46 16.6 33.76 16.66C33.77 16.92 33.79 17.19 33.8 17.45C33.65 17.44 33.5 17.43 33.35 17.41C33.17 17.39 33 17.57 33 17.74C33 17.94 33.14 18.07 33.33 18.09C33.5 18.11 33.66 18.12 33.83 18.13C33.84 18.28 33.84 18.43 33.85 18.57C33.62 18.71 33.4 18.85 33.17 19C33.09 19.05 33.03 19.11 33 19.2C32.98 19.28 32.98 19.39 33.03 19.46C33.08 19.54 33.14 19.6 33.23 19.63C33.31 19.65 33.41 19.65 33.49 19.6C33.74 19.44 33.99 19.28 34.24 19.13C34.48 19.26 34.72 19.4 34.96 19.53C35.04 19.57 35.13 19.59 35.22 19.57C35.3 19.55 35.39 19.49 35.43 19.42C35.52 19.27 35.49 19.04 35.32 18.95C35.05 18.8 34.78 18.65 34.51 18.5C34.5 18.37 34.5 18.25 34.49 18.12C34.69 18.11 34.89 18.1 35.08 18.07C35.26 18.05 35.38 17.82 35.33 17.66C35.27 17.46 35.11 17.39 34.92 17.41C34.91 17.41 34.89 17.41 34.88 17.41C34.88 17.41 34.87 17.41 34.86 17.41C34.83 17.41 34.8 17.42 34.77 17.42C34.7 17.43 34.63 17.43 34.56 17.43C34.53 17.43 34.49 17.43 34.46 17.43C34.45 17.16 34.43 16.9 34.42 16.63C34.73 16.56 35 16.38 35.2 16.15C35.43 16.27 35.67 16.39 35.9 16.51C35.82 16.63 35.73 16.76 35.65 16.88C35.54 17.02 35.61 17.27 35.76 17.35C35.93 17.45 36.12 17.4 36.23 17.24C36.33 17.1 36.42 16.96 36.52 16.82C36.65 16.89 36.78 16.95 36.91 17.02C36.92 17.29 36.93 17.55 36.94 17.82C36.94 17.91 36.97 17.99 37.03 18.06C37.09 18.12 37.19 18.17 37.27 18.17C37.45 18.17 37.63 18.03 37.62 17.84C37.61 17.54 37.6 17.25 37.58 16.95C37.82 16.81 38.05 16.67 38.29 16.52C38.4 16.47 38.46 16.4 38.49 16.31ZM33.57 14.41C33.54 14.43 33.56 14.42 33.57 14.41V14.41ZM34.87 15.45C34.86 15.46 34.85 15.49 34.85 15.5C34.84 15.53 34.82 15.55 34.8 15.58C34.79 15.59 34.74 15.66 34.74 15.67C34.7 15.71 34.67 15.75 34.63 15.78C34.62 15.79 34.61 15.8 34.6 15.8C34.62 15.78 34.56 15.83 34.56 15.83C34.51 15.86 34.45 15.89 34.4 15.91C34.39 15.91 34.39 15.91 34.39 15.92C34.39 15.92 34.38 15.92 34.37 15.92C34.35 15.93 34.33 15.93 34.31 15.94C34.27 15.95 34.22 15.96 34.18 15.97C34.16 15.97 34.13 15.97 34.12 15.97C34.09 15.97 34.06 15.97 34.02 15.97C34 15.97 33.98 15.97 33.96 15.96C33.96 15.96 33.96 15.96 33.95 15.96C33.93 15.96 33.91 15.95 33.9 15.95C33.85 15.94 33.8 15.92 33.76 15.9C33.75 15.9 33.75 15.9 33.75 15.9C33.75 15.9 33.74 15.9 33.74 15.89C33.72 15.88 33.7 15.87 33.69 15.86C33.65 15.84 33.61 15.81 33.57 15.78C33.56 15.78 33.56 15.77 33.56 15.77L33.55 15.76C33.53 15.74 33.5 15.71 33.48 15.69C33.46 15.67 33.45 15.65 33.43 15.63C33.42 15.62 33.42 15.62 33.42 15.62C33.42 15.62 33.42 15.61 33.41 15.61C33.38 15.57 33.36 15.52 33.34 15.48C33.33 15.46 33.32 15.43 33.31 15.41V15.4C33.29 15.34 33.28 15.28 33.27 15.22C33.27 15.21 33.27 15.21 33.27 15.2C33.27 15.19 33.27 15.19 33.27 15.18C33.27 15.15 33.27 15.13 33.27 15.1C33.27 15.07 33.27 15.05 33.27 15.02C33.27 15.01 33.28 14.98 33.28 14.96C33.29 14.92 33.3 14.88 33.31 14.84C33.32 14.82 33.33 14.8 33.33 14.78C33.33 14.77 33.34 14.75 33.35 14.73C33.37 14.69 33.4 14.64 33.43 14.6C33.43 14.59 33.46 14.56 33.47 14.55C33.48 14.53 33.5 14.52 33.51 14.51C33.54 14.48 33.58 14.44 33.62 14.41C33.65 14.39 33.69 14.37 33.72 14.35C33.74 14.34 33.77 14.33 33.79 14.32C33.8 14.32 33.81 14.31 33.82 14.31C33.87 14.3 33.91 14.28 33.96 14.27C33.98 14.27 34.01 14.26 34.03 14.26C34.04 14.26 34.09 14.26 34.09 14.26C34.15 14.26 34.21 14.26 34.27 14.27H34.28C34.32 14.28 34.36 14.29 34.4 14.3C34.42 14.31 34.44 14.31 34.46 14.32C34.47 14.32 34.47 14.33 34.48 14.33C34.49 14.34 34.5 14.34 34.51 14.35C34.56 14.38 34.61 14.41 34.66 14.45C34.67 14.45 34.67 14.46 34.67 14.46L34.68 14.47C34.7 14.49 34.72 14.51 34.74 14.53C34.76 14.55 34.78 14.58 34.8 14.6C34.81 14.61 34.81 14.61 34.81 14.61C34.81 14.61 34.81 14.62 34.82 14.62C34.85 14.67 34.88 14.72 34.91 14.78C34.91 14.79 34.93 14.83 34.93 14.84C34.94 14.86 34.94 14.88 34.95 14.9C34.96 14.93 34.96 14.96 34.97 14.99C34.97 15 34.97 15.02 34.98 15.03C34.98 15.03 34.98 15.04 34.98 15.06C34.98 15.12 34.98 15.19 34.97 15.25C34.97 15.25 34.97 15.25 34.97 15.26C34.97 15.26 34.97 15.26 34.97 15.25C34.97 15.25 34.97 15.25 34.97 15.26C34.97 15.27 34.96 15.3 34.97 15.28C34.97 15.3 34.96 15.32 34.95 15.35C34.9 15.37 34.88 15.41 34.87 15.45Z" fill="#45C2E4"/>
<path d="M42 8.11C41.96 8.08 41.91 8.07 41.87 8.07C41.82 8.08 41.78 8.1 41.75 8.14C41.72 8.18 41.71 8.23 41.71 8.27C41.74 8.43 41.77 8.59 41.8 8.75C41.75 8.79 41.7 8.84 41.65 8.88C41.58 8.8 41.51 8.73 41.43 8.65C41.36 8.58 41.23 8.61 41.17 8.68C41.11 8.77 41.13 8.86 41.2 8.94C41.21 8.95 41.23 8.97 41.24 8.98C41.24 8.98 41.25 8.99 41.26 9C41.29 9.03 41.31 9.06 41.34 9.08C41.35 9.09 41.36 9.11 41.37 9.12C41.26 9.22 41.16 9.31 41.05 9.41C41 9.37 40.92 9.32 40.84 9.3C40.83 9.3 40.82 9.29 40.8 9.29C40.74 9.27 40.67 9.26 40.6 9.26C40.57 9.12 40.54 8.99 40.51 8.85C40.59 8.84 40.67 8.83 40.75 8.83C40.85 8.83 40.92 8.72 40.91 8.63C40.89 8.53 40.81 8.47 40.71 8.47C40.62 8.47 40.53 8.48 40.44 8.49C40.42 8.41 40.41 8.34 40.39 8.26C40.5 8.17 40.6 8.07 40.71 7.98C40.75 7.95 40.77 7.91 40.78 7.86C40.79 7.82 40.77 7.76 40.74 7.73C40.68 7.66 40.56 7.63 40.49 7.69C40.37 7.79 40.25 7.9 40.14 8C40 7.95 39.86 7.9 39.72 7.85C39.68 7.83 39.63 7.83 39.58 7.85C39.54 7.87 39.5 7.91 39.48 7.95C39.45 8.04 39.48 8.15 39.58 8.19C39.73 8.25 39.89 8.3 40.04 8.36C40.05 8.42 40.07 8.49 40.08 8.55C39.98 8.57 39.88 8.6 39.77 8.62C39.73 8.63 39.69 8.68 39.67 8.72C39.65 8.76 39.65 8.82 39.67 8.86C39.69 8.9 39.72 8.94 39.77 8.96C39.82 8.98 39.86 8.97 39.91 8.96C39.93 8.95 39.95 8.95 39.96 8.95C39.97 8.95 39.97 8.95 39.96 8.95C39.97 8.95 39.97 8.95 39.98 8.95C40.02 8.94 40.05 8.93 40.09 8.92C40.11 8.92 40.13 8.91 40.15 8.91C40.18 9.05 40.21 9.19 40.24 9.33C40.12 9.38 40.01 9.46 39.92 9.57C39.9 9.59 39.88 9.62 39.87 9.64C39.74 9.6 39.61 9.55 39.47 9.51C39.5 9.44 39.54 9.36 39.57 9.29C39.61 9.21 39.56 9.08 39.47 9.05C39.37 9.01 39.28 9.06 39.23 9.15C39.19 9.23 39.15 9.31 39.12 9.39C39.05 9.37 38.97 9.34 38.9 9.32C38.87 9.18 38.84 9.04 38.81 8.9C38.8 8.85 38.78 8.81 38.74 8.78C38.7 8.75 38.65 8.74 38.61 8.74C38.56 8.75 38.52 8.77 38.49 8.81C38.46 8.85 38.44 8.9 38.45 8.94C38.48 9.09 38.51 9.25 38.54 9.4C38.43 9.49 38.32 9.59 38.2 9.68C38.16 9.71 38.14 9.75 38.13 9.8C38.12 9.84 38.14 9.9 38.17 9.93C38.23 10 38.35 10.03 38.42 9.97C38.54 9.86 38.67 9.76 38.79 9.65C38.85 9.67 38.92 9.69 38.98 9.71C38.95 9.81 38.92 9.91 38.89 10.01C38.87 10.1 38.96 10.21 39.05 10.21C39.16 10.22 39.23 10.15 39.25 10.05C39.25 10.04 39.25 10.04 39.25 10.03V10.02C39.25 10 39.26 9.99 39.26 9.97C39.27 9.93 39.28 9.9 39.29 9.86C39.3 9.84 39.3 9.83 39.31 9.81C39.45 9.85 39.58 9.9 39.72 9.94C39.7 10.1 39.73 10.27 39.81 10.42C39.71 10.51 39.6 10.61 39.5 10.7C39.45 10.64 39.41 10.57 39.37 10.5C39.32 10.42 39.19 10.41 39.12 10.46C39.04 10.53 39.03 10.63 39.08 10.71C39.13 10.79 39.18 10.86 39.23 10.93C39.17 10.98 39.11 11.04 39.06 11.09C38.93 11.05 38.79 11 38.66 10.96C38.61 10.94 38.57 10.94 38.52 10.96C38.48 10.98 38.44 11.02 38.42 11.06C38.39 11.15 38.42 11.26 38.52 11.3C38.67 11.35 38.82 11.4 38.97 11.45C39 11.59 39.02 11.74 39.05 11.88C39.06 11.93 39.08 11.97 39.12 12C39.16 12.03 39.21 12.04 39.25 12.04C39.3 12.03 39.34 12.01 39.37 11.97C39.4 11.93 39.41 11.88 39.41 11.84C39.38 11.68 39.35 11.52 39.32 11.36C39.37 11.32 39.42 11.27 39.47 11.23C39.54 11.31 39.61 11.38 39.69 11.46C39.76 11.53 39.89 11.5 39.95 11.43C40.01 11.34 39.99 11.25 39.92 11.17C39.91 11.16 39.89 11.14 39.88 11.13C39.88 11.13 39.87 11.12 39.86 11.11C39.83 11.08 39.81 11.05 39.78 11.03C39.77 11.02 39.76 11 39.75 10.99C39.86 10.89 39.96 10.8 40.07 10.7C40.2 10.8 40.36 10.86 40.53 10.87C40.56 11.01 40.59 11.14 40.62 11.28C40.54 11.29 40.46 11.3 40.38 11.3C40.28 11.3 40.21 11.41 40.22 11.5C40.24 11.6 40.32 11.66 40.42 11.66C40.51 11.66 40.6 11.65 40.69 11.64C40.71 11.72 40.72 11.79 40.74 11.87C40.63 11.96 40.53 12.06 40.42 12.15C40.38 12.18 40.36 12.22 40.35 12.27C40.34 12.31 40.36 12.37 40.39 12.4C40.45 12.47 40.57 12.5 40.64 12.44C40.76 12.34 40.88 12.23 40.99 12.13C41.13 12.18 41.27 12.23 41.41 12.28C41.45 12.3 41.5 12.3 41.55 12.28C41.59 12.26 41.63 12.22 41.65 12.18C41.68 12.09 41.65 11.98 41.55 11.94C41.4 11.88 41.24 11.83 41.09 11.77C41.08 11.71 41.06 11.64 41.05 11.58C41.15 11.56 41.25 11.53 41.36 11.51C41.4 11.5 41.44 11.45 41.46 11.41C41.48 11.37 41.48 11.31 41.46 11.27C41.44 11.23 41.41 11.19 41.36 11.17C41.31 11.15 41.27 11.16 41.22 11.17C41.2 11.18 41.19 11.18 41.17 11.18C41.16 11.18 41.16 11.18 41.17 11.18C41.16 11.18 41.16 11.18 41.15 11.18C41.11 11.19 41.08 11.2 41.04 11.21C41.02 11.21 41 11.22 40.98 11.22C40.95 11.08 40.92 10.94 40.89 10.8C41.04 10.73 41.17 10.63 41.26 10.49C41.39 10.53 41.53 10.58 41.66 10.62C41.63 10.69 41.59 10.77 41.56 10.84C41.52 10.92 41.57 11.05 41.66 11.08C41.76 11.12 41.85 11.07 41.9 10.98C41.94 10.9 41.98 10.82 42.01 10.74C42.08 10.76 42.16 10.79 42.23 10.81C42.26 10.95 42.29 11.09 42.32 11.23C42.33 11.28 42.35 11.32 42.39 11.35C42.43 11.38 42.48 11.39 42.52 11.39C42.57 11.38 42.61 11.36 42.64 11.32C42.67 11.28 42.69 11.23 42.68 11.19C42.65 11.04 42.62 10.88 42.59 10.73C42.7 10.64 42.81 10.54 42.93 10.45C42.97 10.42 42.99 10.38 43 10.33C43.01 10.29 42.99 10.23 42.96 10.2C42.9 10.13 42.78 10.1 42.71 10.16C42.59 10.27 42.46 10.37 42.34 10.48C42.28 10.46 42.21 10.44 42.15 10.42C42.18 10.32 42.21 10.22 42.24 10.12C42.26 10.03 42.17 9.92 42.08 9.92C41.97 9.91 41.9 9.98 41.88 10.08C41.88 10.09 41.88 10.09 41.88 10.1V10.11C41.88 10.13 41.87 10.14 41.87 10.16C41.86 10.2 41.85 10.23 41.84 10.27C41.83 10.29 41.83 10.3 41.82 10.32C41.69 10.28 41.55 10.23 41.42 10.19C41.44 10.02 41.41 9.86 41.33 9.71C41.43 9.62 41.54 9.52 41.64 9.43C41.69 9.49 41.73 9.56 41.77 9.63C41.79 9.69 41.92 9.7 42 9.64C42.08 9.57 42.09 9.47 42.04 9.39C41.99 9.31 41.94 9.24 41.89 9.17C41.95 9.12 42.01 9.06 42.06 9.01C42.19 9.05 42.33 9.1 42.46 9.14C42.51 9.16 42.55 9.16 42.6 9.14C42.64 9.12 42.68 9.08 42.7 9.04C42.73 8.95 42.7 8.84 42.6 8.8C42.45 8.75 42.3 8.7 42.15 8.65C42.12 8.51 42.1 8.36 42.07 8.22C42.06 8.18 42.04 8.14 42 8.11ZM40.13 10.19C40.13 10.2 40.13 10.21 40.13 10.19V10.19ZM40.89 9.74C40.9 9.75 40.91 9.76 40.91 9.76C40.92 9.77 40.93 9.78 40.94 9.8C40.95 9.81 40.97 9.85 40.97 9.85C40.98 9.88 40.99 9.9 41 9.93C41 9.94 41 9.94 41.01 9.95C41.01 9.94 41.02 9.97 41.02 9.98C41.03 10.01 41.03 10.04 41.03 10.08V10.09V10.1C41.03 10.11 41.03 10.12 41.03 10.13C41.03 10.15 41.02 10.18 41.02 10.2C41.02 10.21 41.01 10.23 41.01 10.23C41 10.25 41 10.26 40.99 10.28C40.99 10.29 40.98 10.3 40.98 10.31C40.97 10.32 40.97 10.33 40.96 10.33C40.94 10.35 40.93 10.37 40.91 10.39C40.91 10.39 40.91 10.39 40.91 10.4C40.91 10.4 40.91 10.4 40.9 10.4C40.89 10.41 40.88 10.41 40.88 10.42C40.86 10.44 40.84 10.45 40.82 10.47C40.82 10.47 40.82 10.47 40.81 10.47C40.81 10.47 40.81 10.47 40.8 10.47C40.78 10.48 40.77 10.49 40.75 10.49C40.74 10.49 40.73 10.5 40.71 10.5H40.7C40.7 10.5 40.7 10.5 40.69 10.5C40.66 10.51 40.64 10.51 40.61 10.51C40.6 10.51 40.58 10.51 40.57 10.51C40.57 10.51 40.57 10.51 40.56 10.51C40.53 10.51 40.49 10.5 40.46 10.5H40.45H40.44C40.43 10.49 40.41 10.49 40.4 10.49C40.39 10.48 40.37 10.48 40.36 10.47C40.36 10.47 40.34 10.46 40.33 10.45C40.31 10.44 40.29 10.43 40.28 10.41C40.27 10.4 40.26 10.39 40.25 10.39C40.25 10.39 40.24 10.38 40.23 10.37C40.21 10.35 40.2 10.33 40.18 10.31C40.18 10.31 40.17 10.29 40.16 10.28C40.16 10.27 40.15 10.26 40.15 10.25C40.14 10.23 40.13 10.2 40.12 10.18C40.12 10.16 40.11 10.14 40.11 10.12C40.11 10.11 40.11 10.09 40.11 10.08C40.11 10.08 40.11 10.07 40.11 10.06C40.11 10.03 40.11 10.01 40.12 9.98C40.12 9.97 40.12 9.96 40.13 9.94C40.13 9.93 40.14 9.91 40.14 9.91C40.15 9.88 40.16 9.85 40.18 9.82C40.19 9.8 40.2 9.78 40.22 9.77C40.23 9.76 40.23 9.75 40.24 9.75L40.25 9.74C40.26 9.74 40.26 9.73 40.27 9.73C40.29 9.71 40.32 9.69 40.35 9.67C40.35 9.67 40.35 9.67 40.36 9.67C40.36 9.67 40.36 9.67 40.37 9.67C40.38 9.66 40.4 9.66 40.41 9.65C40.42 9.64 40.44 9.64 40.45 9.63H40.46C40.46 9.63 40.46 9.63 40.47 9.63C40.5 9.62 40.53 9.62 40.57 9.62H40.6C40.61 9.62 40.62 9.62 40.64 9.62C40.66 9.62 40.67 9.62 40.69 9.63C40.7 9.63 40.7 9.63 40.71 9.63C40.71 9.63 40.72 9.63 40.73 9.63C40.76 9.64 40.79 9.65 40.82 9.67C40.83 9.67 40.84 9.68 40.83 9.68C40.84 9.69 40.85 9.69 40.86 9.7C40.85 9.71 40.87 9.73 40.89 9.74Z" fill="#45C2E4"/>
<path d="M39.59 14.58C39.49 14.66 39.45 14.79 39.44 14.91C39.42 15.17 39.57 15.43 39.8 15.54C40.03 15.65 40.33 15.6 40.51 15.41C40.69 15.21 40.74 14.82 40.49 14.67C40.24 14.53 39.83 14.37 39.59 14.58Z" fill="#45C2E4"/>
<path d="M30.3 0.0999998C30.2 0.18 30.16 0.31 30.15 0.43C30.13 0.69 30.28 0.95 30.51 1.06C30.74 1.17 31.04 1.12 31.22 0.93C31.4 0.73 31.45 0.34 31.2 0.19C30.96 0.0499998 30.54 -0.11 30.3 0.0999998Z" fill="#45C2E4"/>
<path d="M21.09 10.3C20.99 10.38 20.95 10.51 20.94 10.63C20.92 10.89 21.07 11.15 21.3 11.26C21.53 11.37 21.83 11.32 22.01 11.13C22.19 10.93 22.24 10.54 21.99 10.39C21.75 10.25 21.34 10.1 21.09 10.3Z" fill="#45C2E4"/>
<path d="M40.33 16.29C40.28 16.33 40.26 16.39 40.25 16.46C40.24 16.59 40.31 16.72 40.43 16.77C40.54 16.83 40.69 16.8 40.78 16.71C40.87 16.61 40.89 16.42 40.77 16.34C40.66 16.27 40.45 16.19 40.33 16.29Z" fill="#45C2E4"/>
<path d="M23.03 11.61C22.98 11.65 22.96 11.71 22.95 11.78C22.94 11.91 23.01 12.04 23.13 12.09C23.24 12.15 23.39 12.12 23.48 12.03C23.57 11.93 23.59 11.74 23.47 11.66C23.35 11.58 23.15 11.51 23.03 11.61Z" fill="#45C2E4"/>
<path d="M32.08 1.69C32.03 1.73 32.01 1.79 32 1.86C32 1.98 32.07 2.11 32.19 2.16C32.3 2.22 32.45 2.19 32.54 2.1C32.63 2 32.65 1.81 32.53 1.73C32.41 1.66 32.2 1.58 32.08 1.69Z" fill="#45C2E4"/>
<path d="M54.9801 48.23C55.1201 48.23 55.2601 48.21 55.4001 48.17C56.1501 47.94 56.5801 47.14 56.3501 46.39L54.6301 40.78C54.4001 40.03 53.6001 39.6 52.8501 39.83C52.1001 40.06 51.6701 40.86 51.9001 41.61L53.6201 47.22C53.8001 47.84 54.3701 48.23 54.9801 48.23Z" fill="#45C2E4"/>
<path d="M62.06 48.23C62.2 48.23 62.34 48.21 62.48 48.17C63.23 47.94 63.66 47.14 63.43 46.39L61.71 40.78C61.48 40.03 60.68 39.6 59.93 39.83C59.18 40.06 58.75 40.86 58.98 41.61L60.7 47.22C60.89 47.84 61.45 48.23 62.06 48.23Z" fill="#45C2E4"/>
<path d="M69.5 48.23C69.64 48.23 69.78 48.21 69.92 48.17C70.67 47.94 71.1 47.14 70.87 46.39L69.15 40.78C68.92 40.03 68.12 39.6 67.37 39.83C66.62 40.06 66.19 40.86 66.42 41.61L68.14 47.22C68.32 47.84 68.88 48.23 69.5 48.23Z" fill="#45C2E4"/>
<path d="M107.42 54.01H104.94L99.98 65.49H102.71L103.78 63.01L104.75 60.76L106.19 57.43L109.66 65.49H112.38L107.42 54.01Z" fill="white"/>
</g>
<defs>
<radialGradient id="paint0_radial_369_7" cx="0" cy="0" r="1" gradientUnits="userSpaceOnUse" gradientTransform="translate(76.6644 12.2347) scale(15.4608)">
<stop offset="0.414" stop-color="#FCE890"/>
<stop offset="0.7091" stop-color="#F5EB18"/>
<stop offset="1" stop-color="#FFC808"/>
</radialGradient>
<radialGradient id="paint1_radial_369_7" cx="0" cy="0" r="1" gradientUnits="userSpaceOnUse" gradientTransform="translate(76.6644 12.2347) scale(7.2267)">
<stop stop-color="#F5EB18"/>
<stop offset="1" stop-color="#FFC808"/>
</radialGradient>
<radialGradient id="paint2_radial_369_7" cx="0" cy="0" r="1" gradientUnits="userSpaceOnUse" gradientTransform="translate(62.8711 23.257) scale(22.7415)">
<stop stop-color="#A5DFF9"/>
<stop offset="1" stop-color="#45C8F5"/>
</radialGradient>
<radialGradient id="paint3_radial_369_7" cx="0" cy="0" r="1" gradientUnits="userSpaceOnUse" gradientTransform="translate(44.2004 23.3025) scale(24.098 24.098)">
<stop stop-color="#C6D92C"/>
<stop offset="1" stop-color="#197E3F"/>
</radialGradient>
<radialGradient id="paint4_radial_369_7" cx="0" cy="0" r="1" gradientUnits="userSpaceOnUse" gradientTransform="translate(44.2004 23.3025) scale(24.098 24.098)">
<stop stop-color="#C6D92C"/>
<stop offset="1" stop-color="#197E3F"/>
</radialGradient>
<radialGradient id="paint5_radial_369_7" cx="0" cy="0" r="1" gradientUnits="userSpaceOnUse" gradientTransform="translate(61.1145 29.0042) scale(27.6621 27.6621)">
<stop stop-color="#C6D92C"/>
<stop offset="1" stop-color="#197E3F"/>
</radialGradient>
<radialGradient id="paint6_radial_369_7" cx="0" cy="0" r="1" gradientTransform="matrix(-25.7113 4.82641 -4.46097 -27.3818 14.6746 30.3052)" gradientUnits="userSpaceOnUse">
<stop stop-color="#C6D92C"/>
<stop offset="1" stop-color="#197E3F"/>
</radialGradient>
<radialGradient id="paint7_radial_369_7" cx="0" cy="0" r="1" gradientTransform="matrix(-25.3245 4.75382 -4.39387 -26.97 42.226 32.704)" gradientUnits="userSpaceOnUse">
<stop stop-color="#C6D92C"/>
<stop offset="1" stop-color="#197E3F"/>
</radialGradient>
<radialGradient id="paint8_radial_369_7" cx="0" cy="0" r="1" gradientTransform="matrix(-25.3745 -6.57007 6.12111 -27.233 14.5437 30.1715)" gradientUnits="userSpaceOnUse">
<stop stop-color="#C6D92C"/>
<stop offset="1" stop-color="#197E3F"/>
</radialGradient>
<radialGradient id="paint9_radial_369_7" cx="0" cy="0" r="1" gradientTransform="matrix(24.9929 6.47126 -6.02904 26.8234 42.2432 32.7143)" gradientUnits="userSpaceOnUse">
<stop stop-color="#C6D92C"/>
<stop offset="1" stop-color="#197E3F"/>
</radialGradient>
<clipPath id="clip0_369_7">
<rect width="112.38" height="65.49" fill="white"/>
</clipPath>
</defs>
</svg>
