<svg width="90" height="90" viewBox="0 0 90 90" fill="none" xmlns="http://www.w3.org/2000/svg">
<g clip-path="url(#clip0_396_1089)">
<path d="M23.4667 11.3313L32.147 33.3815L35.9943 30.9219L39.8512 28.4623L23.4667 11.3313Z" fill="#9AAEF4"/>
<path d="M26.5579 7.66588C27.9169 9.79051 27.2948 12.6233 25.1702 13.9823C23.0456 15.3413 20.2127 14.7193 18.8537 12.5946C17.4947 10.47 18.1168 7.63717 20.2414 6.27818C22.3661 4.90961 25.1893 5.53169 26.5579 7.66588Z" fill="#9AAEF4"/>
<path d="M66.5239 78.6591L50.1489 61.5376L53.9962 59.078L57.8531 56.6089L66.5239 78.6591Z" fill="#9AAEF4"/>
<path d="M67.2991 84.4396C69.8256 84.4396 71.8738 82.3914 71.8738 79.8649C71.8738 77.3384 69.8256 75.2903 67.2991 75.2903C64.7726 75.2903 62.7245 77.3384 62.7245 79.8649C62.7245 82.3914 64.7726 84.4396 67.2991 84.4396Z" fill="#9AAEF4"/>
<path d="M78.6591 23.4666L56.6089 32.1469L59.078 35.9942L61.5376 39.8511L78.6591 23.4666Z" fill="#9AAEF4"/>
<path d="M80.1083 27.2674C82.6313 27.1335 84.568 24.9797 84.4341 22.4567C84.3002 19.9338 82.1464 17.9971 79.6234 18.131C77.1004 18.2649 75.1637 20.4187 75.2976 22.9417C75.4315 25.4646 77.5854 27.4013 80.1083 27.2674Z" fill="#9AAEF4"/>
<path d="M11.3314 66.5239L28.4624 50.1489L30.922 53.9962L33.3816 57.8531L11.3314 66.5239Z" fill="#9AAEF4"/>
<path d="M14.7015 67.5255C14.825 65.002 12.8795 62.8561 10.356 62.7326C7.83256 62.6091 5.68672 64.5546 5.56318 67.0781C5.43963 69.6015 7.38516 71.7474 9.90864 71.8709C12.4321 71.9945 14.5779 70.0489 14.7015 67.5255Z" fill="#9AAEF4"/>
<path d="M5.97192 36.4154L27.6967 45.8805L28.6825 41.4112L29.6587 36.9418L5.97192 36.4154Z" fill="#9AAEF4"/>
<path d="M5.56042 31.6398C8.02958 32.1853 9.58955 34.6257 9.04404 37.0853C8.49853 39.5545 6.05808 41.1145 3.59849 40.5689C1.12932 40.0234 -0.43065 37.583 0.114862 35.1234C0.650805 32.6542 3.09126 31.0943 5.56042 31.6398Z" fill="#9AAEF4"/>
<path d="M84.0281 53.5846L60.3318 53.0583L61.3175 48.5889L62.2937 44.1195L84.0281 53.5846Z" fill="#9AAEF4"/>
<path d="M86.4015 49.4215C83.9323 48.876 81.4919 50.436 80.9559 52.9051C80.4104 55.3743 81.9704 57.8147 84.4396 58.3507C86.9087 58.8962 89.3492 57.3362 89.8851 54.8671C90.4306 52.3979 88.8706 49.967 86.4015 49.4215Z" fill="#9AAEF4"/>
<path d="M53.5846 5.97192L44.1195 27.6967L48.5889 28.6825L53.0583 29.6587L53.5846 5.97192Z" fill="#9AAEF4"/>
<path d="M58.4616 4.58726C58.4706 2.06075 56.4297 0.00536312 53.9032 -0.00358358C51.3767 -0.0125303 49.3213 2.02836 49.3123 4.55486C49.3034 7.08137 51.3443 9.13677 53.8708 9.14572C56.3973 9.15466 58.4527 7.11377 58.4616 4.58726Z" fill="#9AAEF4"/>
<path d="M36.4153 84.0281L36.9417 60.3318L41.411 61.3175L45.8804 62.2937L36.4153 84.0281Z" fill="#9AAEF4"/>
<path d="M40.5785 86.4015C41.124 83.9323 39.564 81.4919 37.0948 80.9559C34.6257 80.4104 32.1852 81.9704 31.6493 84.4396C31.1038 86.9087 32.6637 89.3492 35.1329 89.8851C37.5925 90.4306 40.033 88.8706 40.5785 86.4015Z" fill="#9AAEF4"/>
<path d="M68.6763 48.2585C70.5524 35.301 61.5692 23.2759 48.6116 21.3998C35.6541 19.5237 23.629 28.5069 21.7529 41.4644C19.8767 54.422 28.86 66.4471 41.8175 68.3232C54.7751 70.1993 66.8001 61.2161 68.6763 48.2585Z" fill="#ADBFFD"/>
<path d="M65.184 32.0896C63.9781 30.2138 62.5521 28.5581 60.9634 27.1512C61.2505 27.5532 61.5377 27.9552 61.8056 28.3763C68.859 39.4109 65.6338 54.0632 54.6087 61.1166C45.4594 66.9641 33.8122 65.7391 26.0793 58.858C33.4103 68.8877 47.3735 71.6153 57.9775 64.8299C69.0121 57.7861 72.2374 43.1242 65.184 32.0896Z" fill="#8BA7F7"/>
<path d="M53.0774 28.1274C53.4506 30.7879 50.0531 33.4581 45.4881 34.1088C40.923 34.7501 36.9226 33.1231 36.5398 30.4625C36.1665 27.802 39.564 25.1318 44.1291 24.4906C48.7037 23.8398 52.7041 25.4668 53.0774 28.1274Z" fill="#C6D3FC"/>
<path d="M34.0994 35.0564C34.2812 36.3675 33.3721 37.5734 32.0609 37.7648C30.7498 37.9467 29.5439 37.0375 29.3525 35.7263C29.1707 34.4152 30.0798 33.2093 31.391 33.0179C32.7021 32.8265 33.9176 33.7453 34.0994 35.0564Z" fill="#C6D3FC"/>
</g>
<defs>
<clipPath id="clip0_396_1089">
<rect width="90" height="90" fill="white"/>
</clipPath>
</defs>
</svg>
