<svg width="35" height="35" viewBox="0 0 35 35" fill="none" xmlns="http://www.w3.org/2000/svg">
<path d="M7.29163 7.2915H26.25C27.4103 7.2915 28.5231 7.75244 29.3436 8.57291C30.164 9.39338 30.625 10.5062 30.625 11.6665V24.7915C30.625 25.9518 30.164 27.0646 29.3436 27.8851C28.5231 28.7056 27.4103 29.1665 26.25 29.1665H7.29163C6.1313 29.1665 5.01851 28.7056 4.19803 27.8851C3.37756 27.0646 2.91663 25.9518 2.91663 24.7915V11.6665C2.91663 10.5062 3.37756 9.39338 4.19803 8.57291C5.01851 7.75244 6.1313 7.2915 7.29163 7.2915ZM7.29163 8.74984C6.51808 8.74984 5.77621 9.05713 5.22923 9.60411C4.68225 10.1511 4.37496 10.893 4.37496 11.6665V13.1248H29.1666V11.6665C29.1666 10.893 28.8593 10.1511 28.3124 9.60411C27.7654 9.05713 27.0235 8.74984 26.25 8.74984H7.29163ZM4.37496 24.7915C4.37496 25.5651 4.68225 26.3069 5.22923 26.8539C5.77621 27.4009 6.51808 27.7082 7.29163 27.7082H26.25C27.0235 27.7082 27.7654 27.4009 28.3124 26.8539C28.8593 26.3069 29.1666 25.5651 29.1666 24.7915V17.4998H4.37496V24.7915ZM7.29163 23.3332H13.125V24.7915H7.29163V23.3332ZM16.0416 23.3332H20.4166V24.7915H16.0416V23.3332ZM4.37496 14.5832V16.0415H29.1666V14.5832H4.37496Z" fill="white"/>
</svg>
