<svg width="45" height="69" viewBox="0 0 45 69" fill="none" xmlns="http://www.w3.org/2000/svg">
<circle cx="22.5" cy="45.925" r="22.5" fill="url(#paint0_linear_223_335)"/>
<path d="M19.54 43.005V39.825H25.08V54.425H21.52V43.005H19.54Z" fill="white"/>
<path d="M22.0001 13.7L17.8501 16.2C17.6668 16.3167 17.4751 16.3667 17.2751 16.35C17.0751 16.3333 16.9001 16.2667 16.7501 16.15C16.6001 16.0333 16.4834 15.8877 16.4001 15.713C16.3168 15.5383 16.3001 15.3423 16.3501 15.125L17.4501 10.4L13.7751 7.225C13.6084 7.075 13.5044 6.904 13.4631 6.712C13.4218 6.52 13.4341 6.33267 13.5001 6.15C13.5661 5.96733 13.6661 5.81733 13.8001 5.7C13.9341 5.58267 14.1174 5.50767 14.3501 5.475L19.2001 5.05L21.0751 0.6C21.1584 0.4 21.2878 0.25 21.4631 0.15C21.6384 0.0499999 21.8174 0 22.0001 0C22.1828 0 22.3618 0.0499999 22.5371 0.15C22.7124 0.25 22.8418 0.4 22.9251 0.6L24.8001 5.05L29.6501 5.475C29.8834 5.50833 30.0668 5.58333 30.2001 5.7C30.3334 5.81667 30.4334 5.96667 30.5001 6.15C30.5668 6.33333 30.5794 6.521 30.5381 6.713C30.4967 6.905 30.3924 7.07567 30.2251 7.225L26.5501 10.4L27.6501 15.125C27.7001 15.3417 27.6834 15.5377 27.6001 15.713C27.5168 15.8883 27.4001 16.034 27.2501 16.15C27.1001 16.266 26.9251 16.3327 26.7251 16.35C26.5251 16.3673 26.3334 16.3173 26.1501 16.2L22.0001 13.7Z" fill="white"/>
<defs>
<linearGradient id="paint0_linear_223_335" x1="45" y1="45.925" x2="0" y2="45.925" gradientUnits="userSpaceOnUse">
<stop stop-color="#F7D46E"/>
<stop offset="1" stop-color="#B9752A"/>
</linearGradient>
</defs>
</svg>
