<svg width="35" height="35" viewBox="0 0 35 35" fill="none" xmlns="http://www.w3.org/2000/svg">
<path d="M32.3788 6.03449H2.62124C1.17353 6.03449 0 7.20802 0 8.65573V13.6782H35V8.65573C35 7.20802 33.8265 6.03449 32.3788 6.03449Z" fill="#FAB446"/>
<path d="M0 26.3443C0 27.7919 1.17353 28.9655 2.62124 28.9655H32.3788C33.8264 28.9655 35 27.792 35 26.3443V21.3218H0V26.3443Z" fill="#73AF00"/>
<path d="M35 13.678H0V21.3213H35V13.678Z" fill="#F5F5F5"/>
<path d="M17.5 20.7435C15.7114 20.7435 14.2565 19.2886 14.2565 17.5C14.2565 15.7114 15.7114 14.2565 17.5 14.2565C19.2885 14.2565 20.7435 15.7114 20.7435 17.5C20.7435 19.2886 19.2885 20.7435 17.5 20.7435ZM17.5 14.8599C16.0441 14.8599 14.8599 16.0441 14.8599 17.5C14.8599 18.9559 16.0441 20.1401 17.5 20.1401C18.9559 20.1401 20.1401 18.9559 20.1401 17.5C20.1401 16.0441 18.9559 14.8599 17.5 14.8599Z" fill="#41479B"/>
<path d="M17.5 17.8677C17.7031 17.8677 17.8677 17.7031 17.8677 17.5C17.8677 17.2969 17.7031 17.1323 17.5 17.1323C17.297 17.1323 17.1323 17.2969 17.1323 17.5C17.1323 17.7031 17.297 17.8677 17.5 17.8677Z" fill="#41479B"/>
<path d="M17.5 17.5552L16.5655 17.6495L14.5582 17.5552V17.4448L16.5655 17.3505L17.5 17.4448V17.5552Z" fill="#41479B"/>
<path d="M17.5 17.5552L18.4345 17.6495L20.4418 17.5552V17.4448L18.4345 17.3505L17.5 17.4448V17.5552Z" fill="#41479B"/>
<path d="M17.4448 17.5L17.3505 16.5655L17.4448 14.5582H17.5551L17.6495 16.5655L17.5551 17.5H17.4448Z" fill="#41479B"/>
<path d="M17.4448 17.5L17.3505 18.4345L17.4448 20.4418H17.5551L17.6495 18.4345L17.5551 17.5H17.4448Z" fill="#41479B"/>
<path d="M17.461 17.539L16.7336 16.945L15.3809 15.4589L15.4589 15.3809L16.945 16.7336L17.539 17.461L17.461 17.539Z" fill="#41479B"/>
<path d="M17.4611 17.539L18.055 18.2664L19.5412 19.6191L19.6192 19.5411L18.2665 18.055L17.539 17.461L17.4611 17.539Z" fill="#41479B"/>
<path d="M17.4611 17.461L18.055 16.7336L19.5412 15.3809L19.6192 15.4589L18.2665 16.945L17.539 17.539L17.4611 17.461Z" fill="#41479B"/>
<path d="M17.461 17.461L16.7336 18.055L15.3809 19.5411L15.4589 19.6191L16.945 18.2664L17.539 17.539L17.461 17.461Z" fill="#41479B"/>
<path d="M17.5211 17.551L16.6938 17.9957L14.8032 18.6767L14.761 18.5748L16.5794 17.7195L17.4788 17.449L17.5211 17.551Z" fill="#41479B"/>
<path d="M17.5211 17.551L18.4205 17.2805L20.239 16.4252L20.1967 16.3233L18.3062 17.0043L17.4789 17.449L17.5211 17.551Z" fill="#41479B"/>
<path d="M17.449 17.5211L17.0042 16.6938L16.3232 14.8033L16.4252 14.761L17.2805 16.5795L17.551 17.4789L17.449 17.5211Z" fill="#41479B"/>
<path d="M17.449 17.5211L17.7195 18.4205L18.5748 20.239L18.6767 20.1967L17.9957 18.3062L17.551 17.4789L17.449 17.5211Z" fill="#41479B"/>
<path d="M17.4788 17.551L16.5794 17.2805L14.761 16.4252L14.8032 16.3233L16.6938 17.0043L17.5211 17.449L17.4788 17.551Z" fill="#41479B"/>
<path d="M17.4789 17.551L18.3062 17.9957L20.1967 18.6767L20.239 18.5748L18.4205 17.7195L17.5211 17.449L17.4789 17.551Z" fill="#41479B"/>
<path d="M17.449 17.4789L17.7195 16.5795L18.5748 14.761L18.6767 14.8033L17.9957 16.6938L17.551 17.5211L17.449 17.4789Z" fill="#41479B"/>
<path d="M17.449 17.4789L17.0042 18.3062L16.3232 20.1967L16.4252 20.239L17.2805 18.4205L17.551 17.5211L17.449 17.4789Z" fill="#41479B"/>
<path d="M17.5 17.996C17.774 17.996 17.9961 17.7739 17.9961 17.5C17.9961 17.2261 17.774 17.004 17.5 17.004C17.2261 17.004 17.004 17.2261 17.004 17.5C17.004 17.7739 17.2261 17.996 17.5 17.996Z" fill="#F5F5F5"/>
<path d="M17.4999 17.7974C17.6642 17.7974 17.7974 17.6643 17.7974 17.5C17.7974 17.3357 17.6642 17.2026 17.4999 17.2026C17.3357 17.2026 17.2025 17.3357 17.2025 17.5C17.2025 17.6643 17.3357 17.7974 17.4999 17.7974Z" fill="#41479B"/>
</svg>
