<svg width="53" height="53" viewBox="0 0 53 53" fill="none" xmlns="http://www.w3.org/2000/svg">
<g clip-path="url(#clip0_223_6169)">
<path d="M31.771 36.0639C32.0806 36.4825 31.9958 37.074 31.5775 37.3873C28.7889 39.4755 26.0944 40.2183 23.6651 40.2183C17.8205 40.2183 13.5669 35.9223 13.5097 35.856C13.1486 35.48 13.1541 34.8825 13.5318 34.5214C13.9041 34.1585 14.5049 34.1712 14.8624 34.5402C15.1609 34.8459 22.2788 41.9974 30.4455 35.8744C30.8623 35.5609 31.4577 35.6492 31.771 36.0639ZM43.3771 25.5805C40.9868 25.3177 39.0311 25.8365 37.564 27.1332C35.0666 29.3422 34.993 32.9768 34.993 33.1315C34.9858 33.6476 35.4023 34.075 35.9217 34.0825C35.9256 34.0825 35.9329 34.0825 35.9365 34.0825C36.4471 34.0825 36.8691 33.6697 36.8803 33.1572C36.8803 33.1243 36.9538 30.1897 38.8208 28.5422C39.8768 27.6196 41.3515 27.2537 43.1688 27.4592C43.7067 27.5034 44.1547 27.1423 44.2119 26.6268C44.2709 26.1065 43.8989 25.6368 43.3771 25.5805ZM9.31875 35.5424C7.77234 35.1441 6.19838 34.5541 5.55154 34.1452C5.66414 33.7323 5.87784 33.1757 6.22441 32.8588C6.61154 32.5104 6.64666 31.915 6.29433 31.5282C5.94049 31.1414 5.34693 31.1023 4.9598 31.4583C3.83563 32.4723 3.6071 34.1806 3.58319 34.374C3.55353 34.6098 3.62012 34.8496 3.75996 35.0415C4.58568 36.1805 7.58982 37.0467 8.84687 37.3709C8.92799 37.393 9.00517 37.4003 9.08266 37.4003C9.50642 37.4003 9.8881 37.1203 9.99676 36.6926C10.1315 36.1835 9.82544 35.6695 9.31875 35.5424ZM52.9888 31.9335C52.5206 41.8715 45.8912 46.1103 30.8351 46.1103C30.8311 46.1103 30.8311 46.1103 30.8311 46.1103C28.1587 46.1103 25.1691 45.9665 21.9419 45.6866C9.34266 44.5993 0.650481 36.3203 0.28726 35.9698C0.0790133 35.767 -0.0260181 35.4758 0.00515833 35.1883C1.27704 23.3872 14.7096 8.43763 15.2807 7.80442C16.101 7.15213 17.2382 6.8894 18.8896 6.8894C20.9945 6.8894 23.2247 7.31619 23.3203 7.33253C23.4826 7.36462 23.6336 7.43878 23.7589 7.54653C26.787 10.1756 26.4204 13.4298 26.4019 13.5669C26.3744 13.7864 26.273 13.9883 26.1108 14.1393L23.4272 16.6449C23.2522 16.8099 23.0219 16.9001 22.7803 16.9001H18.1323C15.4284 21.5844 14.4756 24.9663 14.2065 27.2122C16.4312 25.3156 19.4208 24.2299 22.5999 24.2299C26.6069 24.2299 30.2357 25.9273 32.4511 28.7039C33.8132 24.4363 37.8165 21.3677 42.4721 21.3677C45.3914 21.3677 48.2224 22.5766 50.235 24.6872C52.1374 26.6825 53.1181 29.2535 52.9888 31.9335ZM51.1052 31.8451C51.2084 29.6867 50.4121 27.6084 48.8693 25.9912C47.2109 24.2532 44.8775 23.257 42.4684 23.257C37.94 23.257 34.1619 26.7994 33.861 31.3196C33.8316 31.7531 33.5144 32.1084 33.0907 32.1859C32.6539 32.2504 32.2392 32.0419 32.0603 31.6478C30.5545 28.3412 26.7561 26.1159 22.5945 26.1159C19.0779 26.1159 15.8598 27.6411 13.9855 30.1937C13.757 30.5109 13.355 30.6471 12.9791 30.5496C12.605 30.4443 12.3265 30.124 12.2878 29.7366C12.0132 27.1674 12.5659 22.6075 16.7739 15.4759C16.9434 15.1884 17.253 15.0113 17.5884 15.0113H22.408L24.5386 13.0218C24.5277 12.3389 24.3249 10.65 22.7065 9.13744C22.0872 9.03059 20.4158 8.77331 18.8878 8.77331C17.2143 8.77331 16.6797 9.08477 16.558 9.18163C16.5432 9.22038 3.46484 23.7798 1.93871 34.9161C3.63797 36.4162 11.5265 42.8946 22.1056 43.8069C25.2814 44.0817 28.2174 44.2219 30.8345 44.2219C48.1341 44.2234 50.8028 38.2738 51.1052 31.8451Z" fill="white"/>
</g>
<defs>
<clipPath id="clip0_223_6169">
<rect width="53" height="53" fill="white"/>
</clipPath>
</defs>
</svg>
