<svg width="50" height="50" viewBox="0 0 50 50" fill="none" xmlns="http://www.w3.org/2000/svg">
<path d="M31.7709 13.5417C33.0141 13.5417 34.2064 13.0479 35.0855 12.1688C35.9645 11.2897 36.4584 10.0975 36.4584 8.85425C36.4584 7.61105 35.9645 6.41876 35.0855 5.53969C34.2064 4.66061 33.0141 4.16675 31.7709 4.16675C30.5277 4.16675 29.3354 4.66061 28.4563 5.53969C27.5773 6.41876 27.0834 7.61105 27.0834 8.85425C27.0834 10.0975 27.5773 11.2897 28.4563 12.1688C29.3354 13.0479 30.5277 13.5417 31.7709 13.5417ZM25.798 13.5397C22.6834 13.1022 15.5646 14.3667 12.6313 22.1855C12.4374 22.7029 12.4569 23.2762 12.6857 23.7793C12.9144 24.2823 13.3337 24.6739 13.8511 24.8678C14.3686 25.0617 14.9419 25.0422 15.4449 24.8134C15.9479 24.5847 16.3395 24.1654 16.5334 23.648C17.7501 20.4084 19.9417 18.823 21.8959 18.1167L19.4584 24.3792C19.4181 24.4834 19.3869 24.5876 19.3646 24.6917C19.2648 25.0119 19.2437 25.3515 19.3032 25.6815C19.3627 26.0116 19.501 26.3224 19.7063 26.5876L27.1271 36.1855L27.6084 43.8793C27.6221 44.1547 27.6903 44.4246 27.8092 44.6734C27.928 44.9223 28.095 45.145 28.3006 45.3288C28.5062 45.5126 28.7462 45.6538 29.0067 45.7441C29.2672 45.8344 29.5431 45.8721 29.8183 45.855C30.0936 45.8379 30.3626 45.7664 30.61 45.6445C30.8573 45.5226 31.078 45.3529 31.2593 45.145C31.4405 44.9372 31.5787 44.6955 31.6658 44.4338C31.7529 44.1722 31.7872 43.8959 31.7667 43.6209L31.2042 34.648L26.8459 29.0084L29.7063 23.4647L29.9001 23.7438C30.4426 24.5321 31.2398 25.1097 32.158 25.3794C33.0761 25.6492 34.0591 25.5947 34.9417 25.2251L39.348 23.3792C39.8449 23.1573 40.2352 22.7498 40.4355 22.2438C40.6358 21.7378 40.6301 21.1735 40.4197 20.6716C40.2093 20.1697 39.8109 19.7701 39.3097 19.5582C38.8084 19.3462 38.2442 19.3388 37.7376 19.5376L33.3313 21.3834L29.9855 16.5188C29.215 15.185 27.9847 14.1777 26.5251 13.6855C26.2892 13.606 26.0442 13.557 25.7959 13.5397" fill="white"/>
<path d="M17.6042 34.2709L19.3271 29.1626L22.3875 33.1209L21.55 35.6022C21.2557 36.4746 20.6807 37.225 19.9148 37.7361C19.1489 38.2472 18.2353 38.4902 17.3167 38.4272L11.3167 38.0168C11.0437 37.9982 10.777 37.926 10.5318 37.8043C10.2867 37.6826 10.0679 37.5138 9.88801 37.3076C9.7081 37.1014 9.57056 36.8618 9.48326 36.6024C9.39596 36.343 9.36061 36.069 9.37921 35.7959C9.39781 35.5229 9.47002 35.2562 9.59169 35.0111C9.71337 34.7659 9.88213 34.5471 10.0884 34.3672C10.2946 34.1873 10.5342 34.0498 10.7936 33.9625C11.053 33.8752 11.327 33.8398 11.6 33.8584L17.6042 34.2709Z" fill="white"/>
</svg>
