<svg width="461" height="22" viewBox="0 0 461 22" fill="none" xmlns="http://www.w3.org/2000/svg">
<g clip-path="url(#clip0_454_112)">
<path d="M458.554 0.818848H416.979C416.655 0.818848 416.343 0.947617 416.114 1.17683C415.884 1.40604 415.756 1.71692 415.756 2.04107V19.9588C415.756 20.283 415.884 20.5939 416.114 20.8231C416.343 21.0523 416.655 21.181 416.979 21.181H458.554C458.878 21.181 459.19 21.0523 459.419 20.8231C459.649 20.5939 459.777 20.283 459.777 19.9588V2.04107C459.777 1.71692 459.649 1.40604 459.419 1.17683C459.19 0.947617 458.878 0.818848 458.554 0.818848Z" fill="white" stroke="#E0E0E0" stroke-width="0.67"/>
<path d="M434.404 8.32358H432.79V9.5458H434.673V10.0836H432.117V6.11135H434.648V6.66135H432.79V7.74913H434.404V8.32358ZM437.412 9.15469H435.896L435.578 10.0591H434.881L436.36 6.11135H436.96L438.439 10.0225H437.767L437.412 9.15469ZM436.091 8.5558H437.229L436.654 6.93024L436.091 8.5558ZM440.983 9.00802C440.986 8.93111 440.97 8.85449 440.939 8.7844C440.907 8.71431 440.859 8.65273 440.799 8.60469C440.597 8.48013 440.38 8.38543 440.151 8.32358C439.883 8.25585 439.628 8.14875 439.393 8.0058C439.235 7.92202 439.103 7.79712 439.01 7.64435C438.917 7.49159 438.868 7.31662 438.867 7.13802C438.863 6.98694 438.896 6.83723 438.963 6.70122C439.029 6.56521 439.125 6.44682 439.246 6.3558C439.531 6.16875 439.872 6.08269 440.212 6.11135C440.46 6.10658 440.706 6.15666 440.934 6.25802C441.143 6.3535 441.32 6.50601 441.447 6.69802C441.57 6.87816 441.633 7.09147 441.631 7.30913H440.946C440.952 7.21995 440.939 7.13041 440.904 7.04765C440.87 6.96489 440.818 6.89121 440.75 6.83247C440.676 6.76673 440.588 6.71664 440.493 6.68515C440.399 6.65367 440.299 6.64142 440.2 6.64913C440.017 6.63834 439.836 6.69006 439.686 6.7958C439.627 6.84384 439.578 6.90542 439.546 6.97551C439.514 7.0456 439.499 7.12222 439.503 7.19913C439.507 7.26914 439.526 7.3374 439.56 7.39878C439.593 7.46017 439.641 7.5131 439.699 7.55358C439.904 7.67923 440.125 7.77396 440.359 7.83469C440.616 7.90366 440.863 8.00641 441.093 8.14024C441.236 8.25161 441.353 8.39357 441.435 8.5558C441.527 8.71553 441.573 8.89721 441.57 9.08135C441.573 9.23088 441.541 9.37922 441.475 9.51343C441.409 9.64765 441.312 9.76367 441.19 9.85136C440.896 10.0619 440.537 10.1654 440.176 10.1447C439.907 10.1486 439.639 10.0944 439.393 9.9858C439.173 9.89166 438.982 9.73958 438.843 9.5458C438.709 9.3611 438.641 9.1378 438.647 8.91024H439.32C439.315 9.00691 439.332 9.10342 439.37 9.19237C439.408 9.28133 439.466 9.36041 439.54 9.42358C439.724 9.55575 439.948 9.62048 440.176 9.60691C440.366 9.61943 440.556 9.5678 440.714 9.46024C440.781 9.41619 440.836 9.35637 440.874 9.28603C440.912 9.2157 440.932 9.13703 440.934 9.05691L440.983 9.00802ZM443.538 7.95691L444.394 6.11135H445.103L443.795 8.5558V10.0591H443.11V8.62913L441.802 6.18469H442.548L443.538 7.95691ZM449.273 8.27469H447.659V9.49691H449.542V10.0347H446.938V6.11135H449.481V6.66135H447.61V7.74913H449.224L449.273 8.27469ZM450.924 6.11135L452.061 9.11802L453.186 6.11135H454.067V10.0225H453.382V8.7758L453.455 7.05247L452.294 10.0591H451.804L450.655 7.05247L450.728 8.7758V10.0591H449.995V6.11135H450.924ZM455.583 10.0225H454.886V6.11135H455.558L455.583 10.0225ZM435.235 14.288C435.245 14.6324 435.178 14.9746 435.04 15.2902C434.921 15.5677 434.721 15.8022 434.465 15.9624C434.211 16.1161 433.918 16.1964 433.621 16.1947C433.32 16.1949 433.025 16.1147 432.765 15.9624C432.516 15.8006 432.317 15.5719 432.191 15.3024C432.054 14.9905 431.988 14.6527 431.995 14.3124V14.0924C431.986 13.7442 432.054 13.3983 432.191 13.078C432.313 12.803 432.512 12.5694 432.765 12.4058C433.017 12.2465 433.311 12.1657 433.609 12.1736C433.911 12.1662 434.208 12.2469 434.465 12.4058C434.716 12.5623 434.913 12.793 435.028 13.0658C435.171 13.3803 435.241 13.7226 435.235 14.068V14.288ZM434.563 14.0802C434.586 13.7313 434.496 13.384 434.306 13.0902C434.23 12.9762 434.126 12.8835 434.004 12.8215C433.882 12.7594 433.746 12.7298 433.609 12.7358C433.475 12.7331 433.341 12.7641 433.221 12.826C433.102 12.8879 433 12.9788 432.924 13.0902C432.741 13.3778 432.65 13.7151 432.667 14.0558V14.288C432.645 14.6368 432.736 14.9836 432.924 15.278C433.005 15.3868 433.11 15.475 433.231 15.5359C433.352 15.5968 433.486 15.6284 433.621 15.6284C433.757 15.6284 433.89 15.5968 434.011 15.5359C434.132 15.475 434.238 15.3868 434.318 15.278C434.498 14.9759 434.584 14.6268 434.563 14.2758V14.0802ZM436.593 14.6913V16.1336H435.908V12.2224H437.412C437.789 12.2056 438.158 12.3273 438.451 12.5647C438.576 12.68 438.675 12.82 438.742 12.9757C438.81 13.1314 438.844 13.2995 438.843 13.4691C438.851 13.6368 438.821 13.8041 438.756 13.9587C438.69 14.1132 438.59 14.2508 438.464 14.3613C438.16 14.597 437.783 14.7143 437.4 14.6913H436.593ZM436.593 14.1413H437.412C437.61 14.1551 437.807 14.094 437.962 13.9702C438.03 13.909 438.082 13.8332 438.116 13.7485C438.151 13.6637 438.164 13.5724 438.158 13.4813C438.163 13.3869 438.148 13.2923 438.115 13.2038C438.081 13.1154 438.03 13.035 437.962 12.968C437.812 12.8403 437.621 12.7709 437.424 12.7724H436.544L436.593 14.1413ZM442.254 12.7724H441.032V16.1336H440.359V12.8091H439.136V12.2224H442.23L442.254 12.7724ZM443.477 16.1336H442.805V12.2224H443.477V16.1336ZM447.439 14.288C447.449 14.6324 447.382 14.9746 447.243 15.2902C447.121 15.5652 446.921 15.7988 446.669 15.9624C446.414 16.1161 446.122 16.1964 445.825 16.1947C445.524 16.1949 445.228 16.1147 444.969 15.9624C444.72 15.8006 444.52 15.5719 444.394 15.3024C444.257 14.9905 444.191 14.6527 444.199 14.3124V14.0924C444.19 13.7442 444.257 13.3983 444.394 13.078C444.517 12.803 444.716 12.5694 444.969 12.4058C445.221 12.2465 445.514 12.1657 445.813 12.1736C446.113 12.1676 446.411 12.2481 446.669 12.4058C446.919 12.5623 447.116 12.793 447.231 13.0658C447.374 13.3803 447.445 13.7226 447.439 14.068V14.288ZM446.754 14.0802C446.781 13.7326 446.696 13.3855 446.51 13.0902C446.434 12.9762 446.33 12.8835 446.208 12.8215C446.085 12.7594 445.95 12.7298 445.813 12.7358C445.678 12.7331 445.545 12.7641 445.425 12.826C445.305 12.8879 445.204 12.9788 445.128 13.0902C444.944 13.3778 444.854 13.7151 444.871 14.0558V14.288C444.849 14.6368 444.94 14.9836 445.128 15.278C445.204 15.3922 445.308 15.4848 445.43 15.5469C445.552 15.609 445.688 15.6384 445.825 15.6324C445.958 15.6388 446.092 15.6107 446.211 15.5508C446.331 15.4908 446.434 15.4012 446.51 15.2902C446.696 14.9905 446.781 14.6395 446.754 14.288V14.0802ZM451.218 16.1702H450.545L448.772 13.4447V16.2191H448.087V12.2224H448.772L450.521 15.0091V12.2224H451.218V16.1702ZM454.067 15.168C454.07 15.0911 454.054 15.0145 454.023 14.9445C453.991 14.8743 453.943 14.8127 453.883 14.7647C453.681 14.6401 453.464 14.5454 453.235 14.4836C452.967 14.4158 452.712 14.3088 452.477 14.1658C452.319 14.0821 452.187 13.9571 452.094 13.8044C452.001 13.6516 451.952 13.4767 451.951 13.298C451.948 13.1469 451.981 12.9972 452.047 12.8612C452.113 12.7253 452.209 12.6068 452.33 12.5158C452.618 12.299 452.973 12.1908 453.333 12.2102C453.581 12.2055 453.827 12.2556 454.054 12.3569C454.262 12.4489 454.437 12.6024 454.556 12.7969C454.683 12.9744 454.748 13.1896 454.739 13.408H454.067C454.073 13.3188 454.059 13.2293 454.025 13.1466C453.991 13.0638 453.938 12.9901 453.871 12.9313C453.796 12.8656 453.708 12.8156 453.614 12.7841C453.52 12.7525 453.42 12.7403 453.321 12.748C453.137 12.7372 452.956 12.7889 452.807 12.8947C452.747 12.9427 452.698 13.0043 452.667 13.0745C452.635 13.1445 452.62 13.2211 452.624 13.298C452.624 13.3686 452.642 13.4379 452.676 13.4998C452.711 13.5618 452.759 13.6142 452.819 13.6524C453.025 13.7781 453.246 13.8728 453.48 13.9336C453.737 14.0025 453.984 14.1053 454.213 14.2391C454.377 14.3399 454.515 14.4781 454.617 14.6424C454.709 14.8022 454.755 14.9839 454.751 15.168C454.753 15.3171 454.72 15.4644 454.654 15.5981C454.588 15.7318 454.491 15.8483 454.372 15.938C454.078 16.1486 453.719 16.2521 453.357 16.2313C453.088 16.2365 452.821 16.1822 452.575 16.0724C452.352 15.983 452.16 15.83 452.025 15.6324C451.891 15.4478 451.823 15.2245 451.829 14.9969H452.501C452.497 15.0936 452.514 15.1901 452.552 15.2791C452.59 15.368 452.648 15.447 452.722 15.5102C452.905 15.6443 453.13 15.7092 453.357 15.6936C453.545 15.7082 453.73 15.6563 453.883 15.5469C453.944 15.5047 453.995 15.448 454.029 15.382C454.063 15.3159 454.08 15.2424 454.079 15.168H454.067Z" fill="#4E4E4E"/>
<path fill-rule="evenodd" clip-rule="evenodd" d="M427.312 7.138V6.11133H426.358V7.138H422.518V6.11133H421.552V7.138H421.075C420.946 7.14272 420.817 7.17304 420.699 7.2272C420.58 7.28137 420.474 7.35834 420.386 7.45369C420.296 7.54905 420.228 7.66092 420.183 7.78291C420.137 7.90491 420.117 8.03463 420.121 8.16466V14.8624C420.115 15.1262 420.212 15.382 420.393 15.5741C420.574 15.7664 420.823 15.8796 421.087 15.8891H427.801C428.065 15.8796 428.314 15.7664 428.495 15.5741C428.675 15.382 428.773 15.1262 428.767 14.8624V8.16466C428.773 7.90088 428.675 7.64514 428.495 7.45294C428.314 7.26073 428.065 7.14757 427.801 7.138H427.312ZM421.075 14.8624V9.20355H427.788V14.8624H421.075Z" fill="#212121"/>
<path d="M423.362 12.0997C423.604 12.0997 423.84 12.028 424.042 11.8937C424.242 11.7594 424.399 11.5685 424.492 11.3452C424.585 11.1219 424.609 10.8761 424.561 10.639C424.514 10.402 424.398 10.1842 424.226 10.0133C424.055 9.84232 423.838 9.72591 423.6 9.67876C423.363 9.6316 423.117 9.65581 422.895 9.74831C422.671 9.84082 422.48 9.99747 422.346 10.1985C422.211 10.3995 422.139 10.6358 422.139 10.8775C422.139 11.2017 422.269 11.5125 422.497 11.7417C422.727 11.971 423.038 12.0997 423.362 12.0997Z" fill="#212121"/>
<path d="M425.282 14.4102C425.524 14.4102 425.76 14.3386 425.962 14.2043C426.162 14.07 426.319 13.879 426.412 13.6557C426.504 13.4324 426.528 13.1867 426.481 12.9495C426.434 12.7126 426.317 12.4948 426.146 12.3238C425.975 12.1529 425.757 12.0365 425.52 11.9893C425.283 11.9421 425.037 11.9663 424.813 12.0589C424.591 12.1514 424.399 12.308 424.266 12.5091C424.131 12.71 424.059 12.9464 424.059 13.188C424.059 13.5123 424.187 13.8231 424.417 14.0522C424.646 14.2815 424.958 14.4102 425.282 14.4102Z" fill="#212121"/>
<path d="M425.245 10.4868L423.227 13.6157" stroke="#212121" stroke-width="0.63" stroke-linecap="square"/>
<path d="M408.016 0.818848H366.44C366.116 0.818848 365.804 0.947617 365.575 1.17683C365.346 1.40604 365.217 1.71692 365.217 2.04107V19.9588C365.217 20.283 365.346 20.5939 365.575 20.8231C365.804 21.0523 366.116 21.181 366.44 21.181H408.016C408.34 21.181 408.65 21.0523 408.88 20.8231C409.11 20.5939 409.238 20.283 409.238 19.9588V2.04107C409.238 1.71692 409.11 1.40604 408.88 1.17683C408.65 0.947617 408.34 0.818848 408.016 0.818848Z" fill="white" stroke="#E0E0E0" stroke-width="0.67"/>
<path d="M382.092 8.78776C382.069 9.1613 381.902 9.5115 381.627 9.76553C381.324 10.0118 380.941 10.1379 380.551 10.12C380.263 10.1261 379.979 10.0497 379.732 9.89998C379.494 9.74273 379.303 9.52282 379.182 9.26443C379.045 8.9653 378.974 8.64012 378.974 8.31109V7.95665C378.971 7.62075 379.037 7.2879 379.169 6.97887C379.297 6.71279 379.498 6.48927 379.75 6.33529C380.002 6.1813 380.293 6.10343 380.588 6.11109C380.967 6.09407 381.337 6.22067 381.627 6.46554C381.904 6.72332 382.07 7.07799 382.092 7.45554H381.407C381.402 7.22905 381.315 7.01207 381.163 6.84443C381.002 6.71135 380.796 6.64565 380.588 6.66109C380.455 6.65454 380.323 6.68131 380.204 6.73895C380.084 6.7966 379.98 6.88328 379.903 6.99109C379.728 7.27282 379.643 7.60098 379.659 7.93219V8.28665C379.643 8.62398 379.723 8.95881 379.891 9.25221C379.963 9.35974 380.062 9.44672 380.177 9.50458C380.293 9.56244 380.422 9.58918 380.551 9.58221C380.768 9.60153 380.982 9.53574 381.15 9.39887C381.309 9.23943 381.401 9.02509 381.407 8.79998L382.092 8.78776ZM384.892 9.15442H383.376L383.058 10.0589H382.349L383.828 6.11109H384.44L385.919 10.0222H385.186L384.892 9.15442ZM383.559 8.55554H384.697L384.134 6.92998L383.559 8.55554ZM388.451 9.00776C388.452 8.93124 388.435 8.8555 388.403 8.78583C388.372 8.71616 388.325 8.65425 388.267 8.60443C388.062 8.47999 387.839 8.38534 387.607 8.32332C387.343 8.25834 387.091 8.15102 386.861 8.00554C386.702 7.92234 386.567 7.79791 386.473 7.64525C386.378 7.4926 386.327 7.31732 386.323 7.13776C386.319 6.98667 386.352 6.83696 386.418 6.70095C386.484 6.56495 386.581 6.44656 386.702 6.35554C386.978 6.17789 387.304 6.09231 387.631 6.11109C387.883 6.1065 388.134 6.15652 388.365 6.25776C388.568 6.35179 388.742 6.49976 388.866 6.68554C388.987 6.87074 389.051 7.08758 389.05 7.30887H388.377C388.381 7.21997 388.366 7.13125 388.332 7.04892C388.298 6.96659 388.246 6.89262 388.182 6.83221C388.029 6.70289 387.832 6.63727 387.631 6.64887C387.448 6.63807 387.267 6.68979 387.118 6.79554C387.057 6.84296 387.006 6.90411 386.972 6.97412C386.938 7.04413 386.921 7.12107 386.922 7.19887C386.926 7.2704 386.945 7.34006 386.982 7.40183C387.019 7.46359 387.069 7.5156 387.13 7.55332C387.332 7.67787 387.549 7.77256 387.778 7.83443C388.035 7.90339 388.282 8.00614 388.512 8.13998C388.684 8.23489 388.827 8.37416 388.927 8.5433C389.013 8.70043 389.056 8.87769 389.05 9.05665C389.055 9.20803 389.023 9.35847 388.957 9.4948C388.891 9.63114 388.793 9.74926 388.671 9.83887C388.376 10.0494 388.018 10.1529 387.656 10.1322C387.387 10.1303 387.121 10.0763 386.873 9.97332C386.656 9.87525 386.466 9.72391 386.323 9.53332C386.19 9.3486 386.121 9.12531 386.127 8.89776H386.812C386.807 8.99443 386.824 9.09092 386.862 9.17989C386.901 9.26884 386.959 9.34793 387.032 9.41109C387.212 9.5433 387.433 9.60819 387.656 9.59443C387.847 9.6089 388.036 9.55709 388.194 9.44776C388.261 9.40734 388.317 9.35001 388.355 9.28142C388.394 9.21281 388.414 9.13535 388.414 9.05665L388.451 9.00776ZM392.828 10.01H392.156V8.32332H390.395V10.0589H389.722V6.11109H390.395V7.78554H392.156V6.11109H392.828V10.01ZM398.123 8.16443C398.133 8.50884 398.066 8.8511 397.927 9.16665C397.809 9.44406 397.608 9.67861 397.353 9.83887C397.097 9.99059 396.806 10.0707 396.509 10.0707C396.212 10.0707 395.921 9.99059 395.665 9.83887C395.413 9.68013 395.213 9.45056 395.09 9.17887C394.944 8.86578 394.872 8.5224 394.883 8.17665V8.00554C394.874 7.66123 394.941 7.31921 395.078 7.00332C395.201 6.72828 395.4 6.49473 395.653 6.33109C395.841 6.20886 396.054 6.12863 396.277 6.09585C396.499 6.06307 396.725 6.07852 396.941 6.14114C397.157 6.20375 397.356 6.31208 397.526 6.45874C397.698 6.6054 397.833 6.78696 397.927 6.99109C398.059 7.3084 398.127 7.64942 398.123 7.99332V8.16443ZM397.414 8.00554C397.436 7.65282 397.345 7.30225 397.157 7.00332C397.08 6.89406 396.977 6.80561 396.857 6.74588C396.739 6.68614 396.606 6.65701 396.472 6.66109C396.337 6.65713 396.203 6.68624 396.081 6.74588C395.96 6.80551 395.855 6.89388 395.775 7.00332C395.594 7.29625 395.504 7.63683 395.518 7.98109V8.21332C395.496 8.56216 395.587 8.90882 395.775 9.20332C395.853 9.31499 395.957 9.40573 396.08 9.46755C396.201 9.52936 396.335 9.56034 396.472 9.55776C396.608 9.56506 396.744 9.53744 396.865 9.47751C396.987 9.4176 397.092 9.3274 397.169 9.21554C397.349 8.91337 397.435 8.5643 397.414 8.21332V8.00554ZM401.865 10.0589H401.192L399.444 7.33332V10.0589H398.771V6.11109H399.444L401.192 8.89776V6.11109H401.865V10.0589ZM379.108 16.17V12.2222H380.294C380.615 12.2209 380.93 12.3008 381.212 12.4544C381.478 12.6107 381.695 12.8397 381.835 13.1144C381.986 13.4139 382.061 13.7451 382.055 14.08V14.2755C382.064 14.6146 381.988 14.9504 381.835 15.2533C381.693 15.5314 381.472 15.7611 381.199 15.9133C380.913 16.0633 380.593 16.1389 380.27 16.1333L379.108 16.17ZM379.781 12.8089V15.6322H380.294C380.445 15.6423 380.596 15.6179 380.736 15.5607C380.876 15.5035 381.001 15.4151 381.102 15.3022C381.312 15.0262 381.417 14.6833 381.395 14.3366V14.1166C381.422 13.7732 381.326 13.4313 381.126 13.1511C381.028 13.0345 380.903 12.9427 380.764 12.8832C380.623 12.8238 380.471 12.7982 380.319 12.8089H379.781ZM384.99 14.4222H383.376V15.6444H385.259V16.1822H382.74V12.2222H385.186V12.7722H383.327V13.86H384.941L384.99 14.4222ZM386.494 15.6444H388.267V16.1822H385.822V12.2222H386.506L386.494 15.6444ZM389.502 16.1822H388.854V12.2222H389.527L389.502 16.1822ZM391.715 15.3389L392.706 12.2711H393.464L392.046 16.1822H391.398L389.991 12.2222H390.737L391.715 15.3389ZM396.191 14.4222H394.577V15.6444H396.46V16.1822H393.904V12.2222H396.436V12.7722H394.577V13.86H396.191V14.4222ZM398.453 14.6666H397.695V16.17H397.01V12.2222H398.392C398.764 12.2013 399.131 12.3092 399.431 12.5277C399.555 12.637 399.653 12.7729 399.716 12.9255C399.78 13.0779 399.808 13.2429 399.798 13.4077C399.801 13.6407 399.737 13.8697 399.615 14.0677C399.48 14.248 399.298 14.3876 399.089 14.4711L399.969 16.0966H399.236L398.453 14.6666ZM397.695 14.1166H398.392C398.586 14.1323 398.78 14.0708 398.93 13.9455C398.997 13.8867 399.05 13.8132 399.084 13.7303C399.118 13.6475 399.133 13.5581 399.126 13.4689C399.132 13.3809 399.118 13.2927 399.087 13.2105C399.055 13.1282 399.006 13.0537 398.942 12.9922C398.871 12.9278 398.788 12.8783 398.698 12.8467C398.607 12.8153 398.512 12.8024 398.417 12.8089H397.695V14.1166ZM401.596 14.1166L402.501 12.2589H403.247L401.938 14.7033V16.1333H401.253V14.74L399.945 12.2955H400.691L401.596 14.1166Z" fill="#4E4E4E"/>
<path d="M371.062 9.93628L370.842 10.5474H374.009C373.942 10.915 373.736 11.2429 373.434 11.4641C372.888 11.8081 372.246 11.9706 371.6 11.9285H370.94V12.6252C371.238 12.6238 371.532 12.7087 371.784 12.8697C372.036 13.0567 372.254 13.2838 372.432 13.5419L374.621 16.4997H375.99L373.434 13.2119C373.253 12.9419 373.036 12.699 372.786 12.4908C373.381 12.4094 373.938 12.1543 374.388 11.7574C374.734 11.4381 374.952 11.0034 375 10.5352H376.406L376.602 9.92406H375.012C374.989 9.62364 374.902 9.33147 374.759 9.06628C374.616 8.80108 374.419 8.56871 374.18 8.38406H376.369L376.589 7.77295H371.013L370.818 8.38406H371.93C372.473 8.34934 373.01 8.51941 373.434 8.86073C373.738 9.14082 373.926 9.52461 373.96 9.93628H371.062Z" fill="#212121"/>
<path d="M357.465 0.818848H315.889C315.565 0.818848 315.254 0.947617 315.024 1.17683C314.795 1.40604 314.666 1.71692 314.666 2.04107V19.9588C314.666 20.283 314.795 20.5939 315.024 20.8231C315.254 21.0523 315.565 21.181 315.889 21.181H357.465C357.789 21.181 358.1 21.0523 358.329 20.8231C358.559 20.5939 358.687 20.283 358.687 19.9588V2.04107C358.687 1.71692 358.559 1.40604 358.329 1.17683C358.1 0.947617 357.789 0.818848 357.465 0.818848Z" fill="white" stroke="#E0E0E0" stroke-width="0.67"/>
<path d="M333.656 9.77732H332.984L331.235 7.00288V9.77732H330.563V5.86621H331.235L332.984 8.65288V5.86621H333.656V9.77732ZM336.75 8.02954H335.148V9.25177H337.019V9.77732H334.463V5.86621H337.007V6.41621H335.148V7.49177H336.75V8.02954ZM340.419 6.41621H339.196V9.77732H338.523V6.41621H337.3V5.86621H340.406L340.419 6.41621ZM330.563 15.8884V11.9773H331.896C332.255 11.9514 332.612 12.046 332.91 12.2462C333.028 12.3409 333.121 12.4628 333.179 12.6011C333.239 12.7396 333.265 12.8904 333.253 13.0407C333.253 13.2107 333.201 13.3769 333.106 13.5173C333.006 13.668 332.86 13.7834 332.69 13.8473C332.884 13.8976 333.052 14.0144 333.167 14.1773C333.293 14.3417 333.358 14.5448 333.351 14.7518C333.36 14.91 333.332 15.0683 333.271 15.2145C333.21 15.3607 333.116 15.491 332.996 15.5951C332.703 15.8094 332.343 15.9132 331.981 15.8884H330.563ZM331.235 14.1284V15.3507H331.993C332.174 15.3562 332.35 15.3001 332.495 15.1918C332.555 15.1358 332.6 15.0672 332.63 14.9911C332.66 14.9149 332.672 14.8332 332.666 14.7518C332.681 14.6678 332.674 14.5815 332.65 14.5001C332.624 14.4187 332.58 14.3444 332.52 14.2835C332.46 14.2227 332.387 14.1768 332.306 14.1499C332.226 14.1229 332.139 14.1156 332.054 14.1284H331.235ZM331.235 13.6273H331.908C332.083 13.6365 332.256 13.5847 332.397 13.4807C332.457 13.4326 332.506 13.371 332.537 13.301C332.569 13.2308 332.584 13.1542 332.58 13.0773C332.588 12.9976 332.575 12.9175 332.546 12.8431C332.515 12.7688 332.469 12.7026 332.409 12.6495C332.255 12.5549 332.075 12.5122 331.896 12.5273H331.235V13.6273ZM336.273 14.984H334.769L334.451 15.8884H333.742L335.222 11.9773H335.833L337.251 15.8884H336.542L336.273 14.984ZM334.953 14.434H336.09L335.515 12.8084L334.953 14.434ZM340.798 15.8884H340.113L338.376 13.114V15.8884H337.692V11.9773H338.376L340.125 14.764V11.9773H340.798V15.8884ZM342.717 14.2018L342.277 14.6662V15.8884H341.605V11.9773H342.277V13.8107L342.656 13.3462L343.806 11.9773H344.625L343.17 13.7129L344.711 15.8884H343.904L342.717 14.2018ZM345.787 15.8884H345.114V11.9773H345.787V15.8884ZM349.724 15.8884H349.052L347.278 13.114V15.8884H346.594V11.9773H347.278L349.027 14.764V11.9773H349.724V15.8884ZM353.527 15.3751C353.379 15.5738 353.175 15.7231 352.94 15.8029C352.666 15.9007 352.375 15.9462 352.084 15.9373C351.781 15.9429 351.48 15.8669 351.216 15.7173C350.958 15.5724 350.752 15.35 350.629 15.0818C350.487 14.7799 350.416 14.4496 350.421 14.1162V13.8107C350.386 13.313 350.539 12.8202 350.849 12.4295C350.998 12.2539 351.187 12.1166 351.399 12.0294C351.612 11.9422 351.843 11.9075 352.072 11.9284C352.446 11.9035 352.815 12.0166 353.111 12.2462C353.38 12.4844 353.547 12.8172 353.576 13.1751H352.916C352.908 13.0739 352.88 12.9751 352.835 12.8847C352.788 12.7941 352.725 12.7136 352.648 12.6477C352.571 12.5818 352.48 12.532 352.384 12.5008C352.287 12.4696 352.186 12.4579 352.084 12.4662C351.952 12.4596 351.82 12.4864 351.7 12.5441C351.58 12.6018 351.476 12.6884 351.399 12.7962C351.221 13.0856 351.132 13.4216 351.143 13.7618V14.0673C351.125 14.4136 351.22 14.7562 351.412 15.0451C351.498 15.1591 351.612 15.2507 351.742 15.3124C351.871 15.374 352.014 15.4038 352.157 15.3995C352.291 15.4141 352.427 15.401 352.555 15.361C352.683 15.3212 352.802 15.2552 352.903 15.1673V14.3973H352.096V13.884H353.576L353.527 15.3751Z" fill="#4E4E4E"/>
<path d="M322.614 4.88867C322.927 4.90437 323.223 5.04003 323.44 5.26756C323.656 5.49509 323.776 5.79705 323.776 6.11089V7.33312C324.526 7.40655 325.221 7.75879 325.724 8.32011C326.227 8.88143 326.501 9.61092 326.491 10.3642V13.542C326.491 13.9304 326.414 14.3151 326.266 14.6739C326.117 15.0327 325.899 15.3588 325.624 15.6335C325.35 15.9081 325.023 16.126 324.664 16.2746C324.306 16.4233 323.92 16.4998 323.532 16.4998C323.143 16.4998 322.759 16.4233 322.399 16.2746C322.04 16.126 321.714 15.9081 321.439 15.6335C321.164 15.3588 320.947 15.0327 320.797 14.6739C320.649 14.3151 320.572 13.9304 320.572 13.542V10.3642C320.563 9.61474 320.833 8.88843 321.331 8.3277C321.828 7.76698 322.517 7.41227 323.263 7.33312V6.11089C323.281 6.03045 323.281 5.9469 323.263 5.86645C323.237 5.78287 323.19 5.70715 323.128 5.64645C323.069 5.58643 322.998 5.54046 322.92 5.51201C322.836 5.49521 322.748 5.49521 322.663 5.51201C322.577 5.51194 322.49 5.52947 322.409 5.56355C322.33 5.59762 322.256 5.64752 322.196 5.7103C322.136 5.77306 322.089 5.84738 322.057 5.92882C322.026 6.01026 322.012 6.09712 322.015 6.18423V6.45312C322.015 6.76696 321.895 7.06892 321.679 7.29645C321.463 7.52398 321.167 7.65965 320.854 7.67534C320.542 7.65663 320.25 7.51964 320.036 7.29243C319.823 7.06522 319.704 6.76495 319.704 6.45312C319.693 6.40896 319.693 6.36283 319.704 6.31867C319.726 6.27735 319.76 6.2434 319.802 6.22089C319.842 6.20998 319.884 6.20998 319.924 6.22089C319.968 6.20833 320.015 6.20833 320.059 6.22089C320.097 6.24674 320.127 6.28141 320.149 6.32187C320.17 6.36233 320.181 6.40739 320.181 6.45312C320.169 6.54481 320.175 6.63816 320.202 6.72687C320.229 6.81558 320.274 6.8976 320.334 6.96739C320.395 7.03719 320.471 7.09315 320.554 7.13149C320.638 7.16983 320.73 7.18966 320.823 7.18966C320.916 7.18966 321.008 7.16983 321.092 7.13149C321.175 7.09315 321.251 7.03719 321.312 6.96739C321.372 6.8976 321.417 6.81558 321.444 6.72687C321.471 6.63816 321.477 6.54481 321.465 6.45312V6.11089C321.465 5.79906 321.584 5.49879 321.796 5.27158C322.01 5.04437 322.303 4.90738 322.614 4.88867ZM323.519 8.55534C323.472 8.54108 323.42 8.54108 323.373 8.55534C323.324 8.57651 323.278 8.60539 323.238 8.64089C323.205 8.67867 323.177 8.71962 323.152 8.76312C323.146 8.81592 323.146 8.86921 323.152 8.92201V10.3642C323.151 10.4166 323.16 10.4688 323.178 10.5177C323.198 10.5665 323.226 10.6111 323.263 10.6487C323.299 10.6863 323.343 10.7163 323.391 10.7367C323.44 10.7571 323.491 10.7676 323.544 10.7676H323.691L323.813 10.682C323.852 10.6452 323.881 10.5989 323.898 10.5476C323.911 10.4994 323.911 10.4491 323.898 10.4009V9.04423C323.911 8.9919 323.911 8.93766 323.898 8.88534C323.879 8.83916 323.849 8.79756 323.813 8.76312L323.691 8.67756C323.643 8.66656 323.593 8.66656 323.544 8.67756L323.519 8.55534Z" fill="black"/>
<path d="M307.745 0.818848H271.061C270.737 0.818848 270.425 0.947617 270.196 1.17683C269.966 1.40604 269.838 1.71692 269.838 2.04107V19.9588C269.838 20.283 269.966 20.5939 270.196 20.8231C270.425 21.0523 270.737 21.181 271.061 21.181H307.745C308.069 21.181 308.38 21.0523 308.61 20.8231C308.839 20.5939 308.968 20.283 308.968 19.9588V2.04107C308.968 1.71692 308.839 1.40604 308.61 1.17683C308.38 0.947617 308.069 0.818848 307.745 0.818848Z" fill="white" stroke="#E0E0E0" stroke-width="0.67"/>
<path opacity="0.94" fill-rule="evenodd" clip-rule="evenodd" d="M275.548 13.0043C275.548 13.0043 275.72 12.2466 276.184 10.5599C276.551 9.25217 276.906 8.02995 276.955 7.84662L277.065 7.50439H278.52C280.219 7.50439 280.476 7.50439 280.758 7.68773C281.234 7.93217 281.369 8.31106 281.21 8.90995C281.075 9.44736 280.738 9.91181 280.268 10.2055C280.171 10.2788 280.073 10.3644 280.073 10.3888C280.073 10.4133 280.073 10.5111 280.232 10.6088C280.32 10.6804 280.394 10.7674 280.452 10.8655C280.537 11.1734 280.537 11.4987 280.452 11.8066C280.392 12.0641 280.352 12.3255 280.33 12.5888V12.9188H279.62C279.372 12.9496 279.121 12.9496 278.874 12.9188C278.801 12.8455 278.813 12.6743 278.874 12.1733C278.936 11.6722 279.009 11.4155 278.874 11.2811C278.74 11.1466 278.605 11.0611 278.092 11.0488C277.578 11.0366 277.615 11.0488 277.554 11.0488C277.493 11.0488 277.37 11.3544 277.138 12.1977L276.942 12.9066H276.355C276.107 12.9206 275.858 12.9206 275.609 12.9066L275.548 13.0043ZM279.217 9.92439C279.559 9.82662 279.694 9.61884 279.694 9.20328C279.717 9.11525 279.717 9.02243 279.694 8.93439C279.596 8.82439 279.29 8.77551 278.715 8.81217H278.214L278.141 9.05662C278.049 9.31772 277.988 9.58833 277.957 9.86328C277.957 9.92439 277.957 9.94884 278.104 9.97328C278.512 10.0013 278.923 9.97669 279.327 9.89995L279.217 9.92439ZM281.577 13.1143C281.375 13.0465 281.208 12.9016 281.112 12.711C280.965 12.3932 281.112 11.6722 281.613 9.93662C281.736 9.52106 281.834 9.17884 281.834 9.16662C281.834 9.16662 281.993 9.16662 282.433 9.16662C282.636 9.14586 282.841 9.14586 283.044 9.16662H283.142L283.044 9.48439C282.824 10.2666 282.592 11.2077 282.555 11.5133C282.518 11.8188 282.555 11.8555 282.555 11.9411C282.555 12.0266 283.02 12.1855 283.325 12.0266C283.631 11.8677 283.741 11.6966 284.328 9.71662C284.36 9.53283 284.431 9.35794 284.536 9.20328L284.646 9.09328H285.221C285.661 9.09328 285.796 9.09328 285.808 9.09328C285.82 9.09328 285.098 11.8066 284.793 12.8455V13.0166H283.57C283.583 12.9536 283.604 12.8921 283.631 12.8332C283.753 12.491 283.631 12.4666 283.142 12.8332C282.856 13.071 282.499 13.2045 282.127 13.2121C281.95 13.2481 281.766 13.2481 281.589 13.2121L281.577 13.1143ZM285.673 13.0043C285.849 12.0812 286.087 11.1707 286.382 10.2788L287.153 7.57773H288.376C289.978 7.57773 290.308 7.57773 290.613 7.77328C290.826 7.85758 291.003 8.01307 291.115 8.21328C291.209 8.42483 291.258 8.65387 291.258 8.88551C291.258 9.11714 291.209 9.34619 291.115 9.55773C291 9.94346 290.791 10.2948 290.507 10.5805C290.223 10.8662 289.874 11.0775 289.488 11.1955C289.21 11.2417 288.927 11.2703 288.645 11.2811C287.507 11.3544 287.581 11.2811 287.52 11.4888C287.459 11.6966 287.373 11.9411 287.263 12.3199L287.067 13.0166H286.358C286.113 13.0304 285.869 13.0304 285.624 13.0166L285.673 13.0043ZM288.987 10.0955C289.128 10.0952 289.267 10.0577 289.389 9.98695C289.512 9.91617 289.613 9.81452 289.684 9.69217C289.748 9.59345 289.787 9.48134 289.8 9.36469C289.812 9.24804 289.798 9.13002 289.757 9.01995C289.647 8.84884 289.488 8.81217 288.889 8.81217C288.694 8.7952 288.498 8.7952 288.302 8.81217C288.176 9.18761 288.078 9.57156 288.009 9.96106C287.999 9.99706 287.999 10.0351 288.009 10.0711C288.326 10.1076 288.646 10.1076 288.963 10.0711L288.987 10.0955ZM291.078 13.1266C290.65 12.9432 290.54 12.6499 290.675 12.0633C290.882 11.2322 291.31 10.9633 292.802 10.7188C293.707 10.5599 293.927 10.45 294.025 10.1322C294.123 9.81439 293.878 9.77773 293.475 9.77773C293.363 9.76845 293.252 9.78453 293.148 9.82477C293.044 9.86501 292.951 9.92833 292.876 10.0099L292.692 10.1566H292.252C291.702 10.1566 291.53 10.1566 291.53 10.0711C291.62 9.84523 291.763 9.6441 291.946 9.48439C292.182 9.28204 292.462 9.1395 292.766 9.06884C293.478 8.8819 294.228 8.8819 294.942 9.06884C295.143 9.15695 295.309 9.30684 295.419 9.49662C295.505 9.65551 295.48 9.81439 295.077 11.3422C294.893 12.0999 294.734 12.7721 294.734 12.8577V12.9921H294.282H293.658H293.487L293.414 12.821C293.316 12.6132 293.316 12.6132 292.851 12.821C292.517 12.9957 292.15 13.0958 291.775 13.1143C291.572 13.1469 291.364 13.1214 291.176 13.041L291.078 13.1266ZM293.059 12.2832C293.207 12.1885 293.332 12.0631 293.427 11.9154C293.522 11.7678 293.584 11.6015 293.609 11.4277V11.2811H293.377C293.024 11.3331 292.681 11.4403 292.362 11.5988C292.285 11.6467 292.219 11.709 292.166 11.7822C292.124 11.8657 292.098 11.9573 292.093 12.0511C292.093 12.2221 292.093 12.271 292.24 12.3199C292.509 12.3853 292.79 12.3853 293.059 12.3199V12.2832ZM295.089 14.7277C294.942 14.7277 294.942 14.6299 295.089 14.2388C295.236 13.8477 295.211 13.7132 295.554 13.6643C295.896 13.6155 296.079 13.5299 296.165 13.371C296.28 12.458 296.28 11.5341 296.165 10.6211C296.129 10.1042 296.129 9.58564 296.165 9.06884C296.165 9.06884 296.373 9.06884 296.862 9.06884H297.51V10.2911C297.484 10.698 297.484 11.1063 297.51 11.5133C297.583 11.5744 297.828 11.1711 298.843 9.31328L298.977 9.04439H299.589C299.784 9.02923 299.98 9.02923 300.176 9.04439C300.176 9.04439 299.32 10.6211 298.439 12.0999C297.217 14.2143 296.96 14.5443 296.373 14.6666C295.968 14.7305 295.558 14.7509 295.15 14.7277H295.089Z" fill="#2A2C83"/>
<path fill-rule="evenodd" clip-rule="evenodd" d="M300.555 14.263L302.267 8.0542L303.905 11.2686L300.555 14.263Z" fill="#097A44"/>
<path fill-rule="evenodd" clip-rule="evenodd" d="M299.479 14.2876L301.203 8.07861L302.842 11.2931L299.479 14.2876Z" fill="#F46F20"/>
<path d="M262.208 1.22217H226.917C226.516 1.22536 226.132 1.38607 225.848 1.6696C225.565 1.95313 225.405 2.33676 225.401 2.73772V19.2622C225.405 19.6632 225.565 20.0467 225.848 20.3303C226.132 20.6138 226.516 20.7745 226.917 20.7777H262.208C262.609 20.7745 262.993 20.6138 263.276 20.3303C263.56 20.0467 263.72 19.6632 263.724 19.2622V2.73772C263.72 2.33676 263.56 1.95313 263.276 1.6696C262.993 1.38607 262.609 1.22536 262.208 1.22217Z" fill="white"/>
<path d="M238.999 20.7777H262.232C262.431 20.7793 262.628 20.7417 262.812 20.6669C262.995 20.5919 263.163 20.4815 263.303 20.3418C263.445 20.2019 263.556 20.0357 263.633 19.8525C263.709 19.6693 263.748 19.4729 263.748 19.2744V12.2222C263.748 12.2222 255.017 18.1377 239.023 20.7777H238.999Z" fill="#F58220"/>
<path fill-rule="evenodd" clip-rule="evenodd" d="M231.185 10.3155C230.84 10.5919 230.402 10.7234 229.962 10.6821H229.717V7.71215H229.962C230.18 7.68975 230.4 7.71061 230.61 7.77353C230.819 7.83646 231.015 7.9402 231.185 8.07882C231.343 8.21739 231.47 8.38844 231.557 8.58037C231.643 8.77228 231.687 8.98056 231.686 9.19104C231.687 9.40334 231.643 9.61347 231.557 9.80739C231.471 10.0013 231.344 10.1745 231.185 10.3155ZM230.133 6.95437H228.8V11.4399H230.121C230.72 11.4694 231.311 11.2829 231.784 10.9144C232.043 10.7076 232.251 10.4455 232.395 10.1472C232.54 9.84894 232.614 9.52219 232.615 9.19104C232.613 8.88009 232.547 8.57297 232.42 8.28887C232.294 8.00476 232.109 7.74978 231.881 7.53986C231.651 7.32995 231.38 7.16962 231.086 7.06887C230.792 6.96813 230.479 6.92916 230.17 6.95437H230.133ZM233.043 6.95437H233.936V11.4399H233.043V6.95437ZM236.149 8.66548C235.611 8.48215 235.452 8.3477 235.452 8.10326C235.452 7.85882 235.734 7.61437 236.125 7.61437C236.266 7.61562 236.405 7.64806 236.531 7.70934C236.658 7.77062 236.769 7.85924 236.859 7.96882L237.323 7.36993C236.945 7.04732 236.462 6.87351 235.966 6.88104C235.613 6.85393 235.263 6.96706 234.993 7.19587C234.724 7.42468 234.554 7.75072 234.523 8.10326C234.523 8.71437 234.804 9.03215 235.66 9.32548C235.875 9.39323 236.083 9.47909 236.284 9.58215C236.363 9.63119 236.431 9.69816 236.48 9.7777C236.526 9.85976 236.552 9.95224 236.553 10.0466C236.552 10.1349 236.532 10.222 236.495 10.3025C236.459 10.383 236.407 10.4553 236.341 10.5148C236.277 10.5743 236.2 10.6199 236.116 10.6486C236.032 10.6774 235.944 10.6888 235.856 10.6821C235.649 10.6847 235.446 10.6297 235.269 10.5233C235.095 10.4171 234.956 10.2647 234.865 10.0833L234.278 10.6333C234.45 10.9044 234.688 11.1261 234.972 11.2762C235.254 11.4263 235.572 11.4996 235.893 11.4888C236.097 11.5058 236.302 11.4801 236.497 11.4134C236.69 11.3467 236.868 11.2404 237.019 11.1014C237.169 10.9623 237.289 10.7935 237.371 10.6056C237.453 10.4177 237.494 10.2149 237.494 10.0099C237.494 9.30104 237.177 8.97104 236.149 8.60437V8.66548ZM237.776 9.19104C237.777 9.50712 237.842 9.81969 237.966 10.1102C238.091 10.4007 238.273 10.6632 238.501 10.882C238.73 11.1009 238.999 11.2718 239.294 11.3844C239.59 11.497 239.905 11.5492 240.221 11.5377C240.616 11.5412 241.006 11.449 241.359 11.2688V10.2421C241.22 10.3968 241.05 10.5204 240.861 10.6046C240.671 10.6889 240.466 10.732 240.258 10.731C240.053 10.7396 239.848 10.7057 239.656 10.6315C239.464 10.5572 239.291 10.4443 239.145 10.2998C239 10.1552 238.885 9.9821 238.809 9.79132C238.733 9.60054 238.698 9.39619 238.705 9.19104C238.701 8.98997 238.738 8.79026 238.813 8.60355C238.888 8.41685 238.999 8.24688 239.14 8.10354C239.281 7.96021 239.45 7.84639 239.636 7.7687C239.82 7.69102 240.02 7.65101 240.221 7.65104C240.435 7.65181 240.647 7.6967 240.843 7.78294C241.038 7.86917 241.213 7.99486 241.359 8.15215V7.12548C241.015 6.9464 240.633 6.85409 240.246 6.85659C239.611 6.84961 239 7.08918 238.539 7.52473C238.078 7.96027 237.804 8.55774 237.776 9.19104ZM248.683 9.96104L247.46 6.95437H246.47L248.439 11.5499H248.928L250.933 6.95437H249.955L248.732 9.96104H248.683ZM251.324 11.4399H253.892V10.6821H252.229V9.45993H253.831V8.70215H252.229V7.71215H253.892V6.95437H251.324V11.4399ZM255.653 8.99548H255.396V7.66326H255.678C256.24 7.66326 256.546 7.88326 256.546 8.32326C256.546 8.76326 256.24 9.01993 255.653 9.01993V8.99548ZM257.475 8.24993C257.475 7.40659 256.876 6.92993 255.837 6.92993H254.492V11.4399H255.396V9.63104H255.519L256.742 11.4399H257.854L256.424 9.54548C256.717 9.50398 256.986 9.3571 257.179 9.13224C257.373 8.90736 257.478 8.61984 257.475 8.32326V8.24993Z" fill="#1A1919"/>
<path fill-rule="evenodd" clip-rule="evenodd" d="M246.592 9.20323C246.592 9.85154 246.334 10.4733 245.876 10.9317C245.417 11.3901 244.796 11.6477 244.147 11.6477C243.498 11.6477 242.876 11.3901 242.417 10.9317C241.959 10.4733 241.701 9.85154 241.701 9.20323C241.701 8.55492 241.959 7.93316 242.417 7.47474C242.876 7.01632 243.498 6.75879 244.147 6.75879C244.796 6.75879 245.417 7.01632 245.876 7.47474C246.334 7.93316 246.592 8.55492 246.592 9.20323Z" fill="#F58220"/>
<path d="M218.064 0.818848H181.38C181.056 0.818848 180.745 0.947617 180.515 1.17683C180.285 1.40604 180.157 1.71692 180.157 2.04107V19.9588C180.157 20.283 180.285 20.5939 180.515 20.8231C180.745 21.0523 181.056 21.181 181.38 21.181H218.064C218.388 21.181 218.7 21.0523 218.929 20.8231C219.158 20.5939 219.287 20.283 219.287 19.9588V2.04107C219.287 1.71692 219.158 1.40604 218.929 1.17683C218.7 0.947617 218.388 0.818848 218.064 0.818848Z" fill="white" stroke="#E0E0E0" stroke-width="0.67"/>
<path fill-rule="evenodd" clip-rule="evenodd" d="M196.017 4.88867H203.488C205.11 4.88867 206.665 5.53251 207.811 6.67858C208.958 7.82463 209.602 9.37902 209.602 10.9998C209.602 12.209 209.243 13.3911 208.57 14.3962C207.898 15.4014 206.941 16.1844 205.824 16.6464C205.079 16.9525 204.28 17.1103 203.476 17.1109H196.017V4.88867Z" fill="#184977"/>
<path d="M196.017 16.5001C197.103 16.488 198.16 16.1553 199.057 15.5436C199.954 14.932 200.65 14.0689 201.057 13.0629C201.464 12.0569 201.565 10.953 201.344 9.89019C201.126 8.82734 200.597 7.85306 199.825 7.08998C199.053 6.32688 198.072 5.8091 197.007 5.60179C195.941 5.39447 194.838 5.50691 193.836 5.92492C192.834 6.34294 191.978 7.04786 191.376 7.95096C190.774 8.85406 190.453 9.91497 190.453 11.0001C190.457 11.7267 190.602 12.4454 190.885 13.1152C191.166 13.7851 191.577 14.3928 192.094 14.9037C192.61 15.4146 193.223 15.8186 193.896 16.0925C194.569 16.3664 195.29 16.505 196.017 16.5001Z" fill="white" stroke="#184977"/>
<path fill-rule="evenodd" clip-rule="evenodd" d="M198.487 11C198.488 10.4085 198.314 9.82989 197.985 9.33778C197.657 8.84831 197.188 8.46924 196.64 8.25V13.75C197.188 13.5307 197.657 13.1517 197.985 12.6622C198.314 12.1701 198.488 11.5915 198.487 11ZM195.405 13.75V8.25C194.854 8.46829 194.381 8.84719 194.047 9.33756C193.714 9.82793 193.536 10.4071 193.536 11C193.536 11.5929 193.714 12.1721 194.047 12.6625C194.381 13.1528 194.854 13.5317 195.405 13.75Z" fill="#184977"/>
<path d="M173.236 0.818848H136.551C136.227 0.818848 135.916 0.947617 135.687 1.17683C135.457 1.40604 135.329 1.71692 135.329 2.04107V19.9588C135.329 20.283 135.457 20.5939 135.687 20.8231C135.916 21.0523 136.227 21.181 136.551 21.181H173.236C173.56 21.181 173.87 21.0523 174.1 20.8231C174.33 20.5939 174.459 20.283 174.459 19.9588V2.04107C174.459 1.71692 174.33 1.40604 174.1 1.17683C173.87 0.947617 173.56 0.818848 173.236 0.818848Z" fill="white" stroke="#E0E0E0" stroke-width="0.67"/>
<path d="M157.486 14.2877L157.144 13.8721V14.2877H156.019V13.5666C155.874 13.6388 155.715 13.6764 155.554 13.6766H155.15V14.2877H153.463L153.157 13.8843L152.851 14.2877H150.051V11.6232H152.851L153.157 12.0143L153.463 11.6232H163.735V2.44434H146.737V9.61878L147.373 8.11545H148.474L148.841 8.94656V8.11545H150.21L150.43 8.72656L150.638 8.11545H156.752V8.421C157 8.21848 157.312 8.11024 157.633 8.11545H159.589L159.956 8.94656V8.11545H161.118L161.411 8.55545V8.11545H162.634V10.7799H161.411L161.105 10.3032V10.7799H159.418L159.247 10.3766H158.794L158.623 10.7799H157.584C157.277 10.7954 156.976 10.695 156.74 10.4988V10.7799H155.016L154.673 10.3643V10.7799H148.266L148.107 10.3766H147.642L147.471 10.7799H146.737V19.4454H163.747V14.0921C163.558 14.2278 163.331 14.2966 163.099 14.2877H157.486Z" fill="#0079C1"/>
<path d="M163.759 11.9536L163.563 12.4058L162.609 12.2102C162.59 12.2022 162.569 12.198 162.548 12.198C162.528 12.198 162.507 12.2022 162.487 12.2102C162.476 12.2461 162.476 12.2844 162.487 12.3202C162.487 12.3656 162.506 12.4091 162.537 12.4412C162.569 12.4733 162.613 12.4914 162.658 12.4914H163.123C163.527 12.4914 163.759 12.6991 163.759 13.0658C163.776 13.1505 163.776 13.2378 163.759 13.3225C163.725 13.4077 163.67 13.4832 163.6 13.5425C163.534 13.6031 163.457 13.6495 163.374 13.679C163.289 13.7084 163.2 13.7202 163.111 13.7136H162.071V13.2614H163.196C163.204 13.2417 163.204 13.2199 163.196 13.2002C163.203 13.1762 163.203 13.151 163.196 13.1269H163.135H162.585C162.504 13.1444 162.421 13.1444 162.34 13.1269C162.262 13.1032 162.191 13.0613 162.133 13.0047C162.07 12.9485 162.024 12.8768 161.998 12.7969C161.981 12.7205 161.981 12.6411 161.998 12.5647C161.998 12.4755 162.019 12.3875 162.059 12.308C162.093 12.226 162.144 12.1513 162.206 12.088C162.273 12.0272 162.351 11.9813 162.438 11.9536C162.523 11.9354 162.611 11.9354 162.695 11.9536H163.759Z" fill="#0079C1"/>
<path d="M128.395 0.818848H91.7108C91.3866 0.818848 91.0755 0.947617 90.8462 1.17683C90.6169 1.40604 90.488 1.71692 90.488 2.04107V19.9588C90.488 20.283 90.6169 20.5939 90.8462 20.8231C91.0755 21.0523 91.3866 21.181 91.7108 21.181H128.395C128.719 21.181 129.031 21.0523 129.26 20.8231C129.49 20.5939 129.618 20.283 129.618 19.9588V2.04107C129.618 1.71692 129.49 1.40604 129.26 1.17683C129.031 0.947617 128.719 0.818848 128.395 0.818848Z" fill="white" stroke="#E0E0E0" stroke-width="0.67"/>
<path d="M105.724 17.1109C106.934 17.1109 108.116 16.7525 109.121 16.0809C110.127 15.4094 110.91 14.455 111.373 13.3384C111.836 12.2217 111.957 10.993 111.721 9.80756C111.485 8.62213 110.903 7.53323 110.048 6.67858C109.192 5.82393 108.103 5.24189 106.917 5.0061C105.731 4.7703 104.502 4.89132 103.384 5.35385C102.267 5.81639 101.312 6.59967 100.641 7.60463C99.9688 8.6096 99.6102 9.79112 99.6102 10.9998C99.6102 12.6206 100.254 14.175 101.401 15.3209C102.548 16.467 104.103 17.1109 105.724 17.1109Z" fill="#007BDB"/>
<path d="M114.382 17.1114C115.588 17.097 116.763 16.7263 117.758 16.0461C118.754 15.3658 119.526 14.4064 119.978 13.2885C120.429 12.1707 120.54 10.9444 120.296 9.76379C120.052 8.58322 119.464 7.5012 118.606 6.65386C117.748 5.80653 116.658 5.23174 115.474 5.00183C114.29 4.7719 113.065 4.89713 111.952 5.36175C110.839 5.82636 109.888 6.6096 109.22 7.61292C108.551 8.61623 108.194 9.7948 108.194 11.0003C108.194 11.8091 108.355 12.6097 108.667 13.356C108.979 14.1023 109.435 14.7793 110.011 15.3476C110.587 15.9161 111.269 16.3647 112.019 16.6675C112.77 16.9702 113.573 17.1212 114.382 17.1114Z" fill="#E42B00"/>
<path fill-rule="evenodd" clip-rule="evenodd" d="M110.053 15.3756C111.15 14.169 111.805 12.6267 111.912 11.0001C111.805 9.3735 111.15 7.83114 110.053 6.62451C109.452 7.18147 108.975 7.8593 108.655 8.61343C108.335 9.36757 108.178 10.1809 108.194 11.0001C108.18 11.8189 108.338 12.6316 108.658 13.3853C108.979 14.1392 109.454 14.8173 110.053 15.3756Z" fill="#1740CE"/>
<path d="M83.5549 0.818848H46.8705C46.5462 0.818848 46.2351 0.947617 46.0059 1.17683C45.7765 1.40604 45.6477 1.71692 45.6477 2.04107V19.9588C45.6477 20.283 45.7765 20.5939 46.0059 20.8231C46.2351 21.0523 46.5462 21.181 46.8705 21.181H83.5549C83.8792 21.181 84.1901 21.0523 84.4195 20.8231C84.6488 20.5939 84.7777 20.283 84.7777 19.9588V2.04107C84.7777 1.71692 84.6488 1.40604 84.4195 1.17683C84.1901 0.947617 83.8792 0.818848 83.5549 0.818848Z" fill="white" stroke="#E0E0E0" stroke-width="0.67"/>
<path d="M60.8963 17.1114C62.1024 17.097 63.2771 16.7263 64.2728 16.0461C65.2687 15.3658 66.0409 14.4064 66.4924 13.2885C66.9439 12.1707 67.0546 10.9444 66.8104 9.76379C66.5663 8.58322 65.9783 7.5012 65.1204 6.65386C64.2624 5.80653 63.173 5.23174 61.989 5.00183C60.8051 4.7719 59.5796 4.89713 58.4666 5.36175C57.3537 5.82636 56.4031 6.6096 55.7344 7.61292C55.0658 8.61623 54.709 9.7948 54.7089 11.0003C54.7089 11.8091 54.8694 12.6097 55.1812 13.356C55.4931 14.1023 55.95 14.7793 56.5255 15.3476C57.101 15.9161 57.7837 16.3647 58.5341 16.6675C59.2844 16.9702 60.0873 17.1212 60.8963 17.1114Z" fill="#CC0000"/>
<path d="M69.5414 17.1109C70.7507 17.1109 71.9328 16.7525 72.9383 16.0809C73.9437 15.4094 74.7274 14.455 75.1901 13.3384C75.6529 12.2217 75.774 10.993 75.538 9.80756C75.3021 8.62213 74.7198 7.53323 73.8648 6.67858C73.0097 5.82393 71.9203 5.24189 70.7343 5.0061C69.5483 4.7703 68.3189 4.89132 67.2017 5.35385C66.0845 5.81639 65.1296 6.59967 64.4578 7.60463C63.786 8.6096 63.4274 9.79112 63.4274 10.9998C63.4274 12.6206 64.0715 14.175 65.2182 15.3209C66.3648 16.467 67.9199 17.1109 69.5414 17.1109Z" fill="#FF9900"/>
<path fill-rule="evenodd" clip-rule="evenodd" d="M65.2124 15.3756C66.309 14.169 66.9642 12.6267 67.0711 11.0001C66.9642 9.3735 66.309 7.83114 65.2124 6.62451C64.6141 7.18304 64.1403 7.86144 63.8222 8.61541C63.504 9.36938 63.3486 10.182 63.3659 11.0001C63.3509 11.8179 63.5074 12.6298 63.8253 13.3834C64.1434 14.137 64.6159 14.8157 65.2124 15.3756Z" fill="#F16D27"/>
<path d="M38.7263 0.818848H2.04202C1.71772 0.818848 1.40669 0.947617 1.17737 1.17683C0.948046 1.40604 0.819214 1.71692 0.819214 2.04107V19.9588C0.819214 20.283 0.948046 20.5939 1.17737 20.8231C1.40669 21.0523 1.71772 21.181 2.04202 21.181H38.7263C39.0506 21.181 39.3617 21.0523 39.591 20.8231C39.8204 20.5939 39.9492 20.283 39.9492 19.9588V2.04107C39.9492 1.71692 39.8204 1.40604 39.591 1.17683C39.3617 0.947617 39.0506 0.818848 38.7263 0.818848Z" fill="white" stroke="#E0E0E0" stroke-width="0.67"/>
<path d="M17.1194 7.089L13.7567 15.1068H11.5312L9.88036 8.70234C9.86087 8.5523 9.80501 8.4093 9.71764 8.28576C9.63026 8.16221 9.51402 8.06187 9.37901 7.99345C8.72747 7.69183 8.04178 7.47021 7.33691 7.33345V7.089H10.9198C11.1504 7.09244 11.3719 7.17929 11.5434 7.33345C11.7148 7.48755 11.8308 7.69367 11.8735 7.92011L12.7417 12.5646L14.9061 7.089H17.1194ZM25.6791 12.4913C25.6791 10.3646 22.7566 10.2546 22.7688 9.30123C22.7688 9.02012 23.05 8.71456 23.6492 8.64123C24.3455 8.57231 25.0474 8.69487 25.6791 8.99567L26.0582 7.33345C25.4409 7.09966 24.7863 6.97957 24.1261 6.979C22.084 6.979 20.6289 8.06678 20.6166 9.63123C20.6166 10.7801 21.6438 11.4279 22.4386 11.8068C23.2335 12.1857 23.5147 12.4546 23.5147 12.8091C23.5147 13.3468 22.8666 13.5791 22.2919 13.5913C21.55 13.6079 20.8167 13.4309 20.1642 13.0779L19.7851 14.8379C20.5226 15.1214 21.3061 15.2665 22.0963 15.2657C24.2729 15.2657 25.7035 14.1902 25.7035 12.5279L25.6791 12.4913ZM31.0961 15.0946H33.016L31.3407 7.089H29.5676C29.3801 7.08541 29.196 7.14101 29.0418 7.24789C28.8805 7.34847 28.7561 7.49855 28.6872 7.67567L25.569 15.1068H27.7456L28.1859 13.8846H30.8516L31.0961 15.0946ZM28.785 12.2223L29.8733 9.21567L30.497 12.2223H28.785ZM20.0542 7.089L18.3422 15.1068H16.2634L17.9754 7.089H20.0542Z" fill="#1A1F71"/>
</g>
<defs>
<clipPath id="clip0_454_112">
<rect width="461" height="22" fill="white"/>
</clipPath>
</defs>
</svg>
